solid cylinderJointD1_c2
   facet normal 2.948384e-02 -9.937346e-01 1.078066e-01
      outer loop
         vertex -1.950000e-01 -1.895700e+00 7.594000e-01
         vertex -1.442000e-01 -1.904000e+00 6.690000e-01
         vertex 3.102000e-01 -1.880700e+00 7.595000e-01
      endloop
   endfacet
   facet normal 5.717175e-02 -9.979093e-01 -3.013934e-02
      outer loop
         vertex 3.102000e-01 -1.880700e+00 7.595000e-01
         vertex -1.442000e-01 -1.904000e+00 6.690000e-01
         vertex 3.220000e-01 -1.875400e+00 6.064000e-01
      endloop
   endfacet
   facet normal -1.919495e-01 -9.812438e-01 -1.777389e-02
      outer loop
         vertex -5.529000e-01 -1.820600e+00 4.785000e-01
         vertex -1.442000e-01 -1.904000e+00 6.690000e-01
         vertex -1.950000e-01 -1.895700e+00 7.594000e-01
      endloop
   endfacet
   facet normal -7.619548e-02 -2.294039e-02 -9.968290e-01
      outer loop
         vertex 2.496000e-01 -1.400000e+00 6.273000e-01
         vertex -1.442000e-01 -1.904000e+00 6.690000e-01
         vertex -1.485000e-01 -1.398700e+00 6.577000e-01
      endloop
   endfacet
   facet normal -1.344378e-01 2.307813e-02 -9.906533e-01
      outer loop
         vertex 2.496000e-01 -1.400000e+00 6.273000e-01
         vertex 3.220000e-01 -1.875400e+00 6.064000e-01
         vertex -1.442000e-01 -1.904000e+00 6.690000e-01
      endloop
   endfacet
   facet normal 4.200264e-01 -1.432450e-02 -9.073988e-01
      outer loop
         vertex -6.010000e-01 -1.400300e+00 4.496000e-01
         vertex -1.442000e-01 -1.904000e+00 6.690000e-01
         vertex -5.529000e-01 -1.820600e+00 4.785000e-01
      endloop
   endfacet
   facet normal 4.178130e-01 -1.675848e-02 -9.083785e-01
      outer loop
         vertex -1.485000e-01 -1.398700e+00 6.577000e-01
         vertex -1.442000e-01 -1.904000e+00 6.690000e-01
         vertex -6.010000e-01 -1.400300e+00 4.496000e-01
      endloop
   endfacet
   facet normal -1.973643e-04 -1.948842e-05 1.000000e+00
      outer loop
         vertex -8.000000e-01 -9.000000e-01 7.593000e-01
         vertex -1.950000e-01 -1.895700e+00 7.594000e-01
         vertex 3.102000e-01 -1.880700e+00 7.595000e-01
      endloop
   endfacet
   facet normal -2.047570e-04 -2.398033e-05 1.000000e+00
      outer loop
         vertex -8.000000e-01 -9.000000e-01 7.593000e-01
         vertex -6.975000e-01 -1.775200e+00 7.593000e-01
         vertex -1.950000e-01 -1.895700e+00 7.594000e-01
      endloop
   endfacet
   facet normal -2.330363e-01 -9.717597e-01 3.711125e-02
      outer loop
         vertex -6.975000e-01 -1.775200e+00 7.593000e-01
         vertex -5.529000e-01 -1.820600e+00 4.785000e-01
         vertex -1.950000e-01 -1.895700e+00 7.594000e-01
      endloop
   endfacet
   facet normal 3.043533e-03 3.649362e-03 9.999887e-01
      outer loop
         vertex 3.102000e-01 -1.880700e+00 7.595000e-01
         vertex -1.929000e-01 -1.187100e+00 7.585000e-01
         vertex -8.000000e-01 -9.000000e-01 7.593000e-01
      endloop
   endfacet
   facet normal -2.228268e-03 -1.745047e-04 9.999975e-01
      outer loop
         vertex -3.700000e-03 -1.310800e+00 7.589000e-01
         vertex -1.929000e-01 -1.187100e+00 7.585000e-01
         vertex 3.102000e-01 -1.880700e+00 7.595000e-01
      endloop
   endfacet
   facet normal 2.480362e-01 -9.686435e-01 -1.441555e-02
      outer loop
         vertex 3.102000e-01 -1.880700e+00 7.595000e-01
         vertex 3.220000e-01 -1.875400e+00 6.064000e-01
         vertex 6.481000e-01 -1.788800e+00 3.983000e-01
      endloop
   endfacet
   facet normal 2.966580e-01 -9.543529e-01 3.470571e-02
      outer loop
         vertex 3.102000e-01 -1.880700e+00 7.595000e-01
         vertex 6.481000e-01 -1.788800e+00 3.983000e-01
         vertex 8.185000e-01 -1.722700e+00 7.594000e-01
      endloop
   endfacet
   facet normal -4.712816e-04 7.932426e-04 9.999996e-01
      outer loop
         vertex 3.102000e-01 -1.880700e+00 7.595000e-01
         vertex 1.902000e-01 -1.195600e+00 7.589000e-01
         vertex -3.700000e-03 -1.310800e+00 7.589000e-01
      endloop
   endfacet
   facet normal -7.159717e-05 8.632502e-04 9.999996e-01
      outer loop
         vertex 8.185000e-01 -1.722700e+00 7.594000e-01
         vertex 1.902000e-01 -1.195600e+00 7.589000e-01
         vertex 3.102000e-01 -1.880700e+00 7.595000e-01
      endloop
   endfacet
   facet normal -4.564219e-01 -3.041601e-02 -8.892434e-01
      outer loop
         vertex 3.220000e-01 -1.875400e+00 6.064000e-01
         vertex 2.496000e-01 -1.400000e+00 6.273000e-01
         vertex 5.995000e-01 -1.399800e+00 4.477000e-01
      endloop
   endfacet
   facet normal -5.447627e-01 3.832296e-02 -8.377141e-01
      outer loop
         vertex 5.995000e-01 -1.399800e+00 4.477000e-01
         vertex 6.481000e-01 -1.788800e+00 3.983000e-01
         vertex 3.220000e-01 -1.875400e+00 6.064000e-01
      endloop
   endfacet
   facet normal -3.338935e-01 -9.424076e-01 -1.957157e-02
      outer loop
         vertex -6.975000e-01 -1.775200e+00 7.593000e-01
         vertex -8.875000e-01 -1.693400e+00 6.190000e-02
         vertex -5.529000e-01 -1.820600e+00 4.785000e-01
      endloop
   endfacet
   facet normal 7.858165e-01 4.753059e-02 -6.166306e-01
      outer loop
         vertex -8.875000e-01 -1.693400e+00 6.190000e-02
         vertex -6.010000e-01 -1.400300e+00 4.496000e-01
         vertex -5.529000e-01 -1.820600e+00 4.785000e-01
      endloop
   endfacet
   facet normal -2.853398e-03 -9.999814e-01 5.392483e-03
      outer loop
         vertex -8.585000e-01 -1.399900e+00 5.950000e-02
         vertex 2.496000e-01 -1.400000e+00 6.273000e-01
         vertex -1.485000e-01 -1.398700e+00 6.577000e-01
      endloop
   endfacet
   facet normal 2.403912e-04 -9.999998e-01 -6.452594e-04
      outer loop
         vertex -8.585000e-01 -1.399900e+00 5.950000e-02
         vertex 5.995000e-01 -1.399800e+00 4.477000e-01
         vertex 2.496000e-01 -1.400000e+00 6.273000e-01
      endloop
   endfacet
   facet normal 5.753797e-03 -9.999718e-01 -4.823365e-03
      outer loop
         vertex -1.485000e-01 -1.398700e+00 6.577000e-01
         vertex -6.010000e-01 -1.400300e+00 4.496000e-01
         vertex -8.585000e-01 -1.399900e+00 5.950000e-02
      endloop
   endfacet
   facet normal 8.313971e-01 -8.663653e-02 -5.488835e-01
      outer loop
         vertex -8.875000e-01 -1.693400e+00 6.190000e-02
         vertex -8.585000e-01 -1.399900e+00 5.950000e-02
         vertex -6.010000e-01 -1.400300e+00 4.496000e-01
      endloop
   endfacet
   facet normal 3.089233e-03 -2.383502e-03 9.999924e-01
      outer loop
         vertex -8.000000e-01 -9.000000e-01 7.593000e-01
         vertex -1.681700e+00 -9.100000e-01 7.620000e-01
         vertex -1.150500e+00 -1.522100e+00 7.589000e-01
      endloop
   endfacet
   facet normal -9.448337e-04 -1.106552e-04 9.999995e-01
      outer loop
         vertex -8.000000e-01 -9.000000e-01 7.593000e-01
         vertex -1.150500e+00 -1.522100e+00 7.589000e-01
         vertex -6.975000e-01 -1.775200e+00 7.593000e-01
      endloop
   endfacet
   facet normal -4.074991e-04 -3.648184e-03 9.999933e-01
      outer loop
         vertex -8.000000e-01 -9.000000e-01 7.593000e-01
         vertex -1.929000e-01 -1.187100e+00 7.585000e-01
         vertex -1.761000e-01 -9.971000e-01 7.592000e-01
      endloop
   endfacet
   facet normal 1.440547e-04 -1.901354e-04 1.000000e+00
      outer loop
         vertex -4.369000e-01 -6.249000e-01 7.593000e-01
         vertex -7.012000e-01 -2.992000e-01 7.594000e-01
         vertex -8.000000e-01 -9.000000e-01 7.593000e-01
      endloop
   endfacet
   facet normal 1.329690e-04 -1.755036e-04 1.000000e+00
      outer loop
         vertex -1.761000e-01 -9.971000e-01 7.592000e-01
         vertex -4.369000e-01 -6.249000e-01 7.593000e-01
         vertex -8.000000e-01 -9.000000e-01 7.593000e-01
      endloop
   endfacet
   facet normal -1.409989e-03 6.542321e-05 9.999990e-01
      outer loop
         vertex -7.012000e-01 -2.992000e-01 7.594000e-01
         vertex -7.527000e-01 1.194000e-01 7.593000e-01
         vertex -8.000000e-01 -9.000000e-01 7.593000e-01
      endloop
   endfacet
   facet normal 0.000000e+00 0.000000e+00 1.000000e+00
      outer loop
         vertex -8.000000e-01 -9.000000e-01 7.593000e-01
         vertex -7.527000e-01 1.194000e-01 7.593000e-01
         vertex -8.000000e-01 9.000000e-01 7.593000e-01
      endloop
   endfacet
   facet normal 1.134102e-02 -9.999357e-01 0.000000e+00
      outer loop
         vertex -8.000000e-01 -9.000000e-01 7.593000e-01
         vertex -8.000000e-01 -9.000000e-01 1.059300e+00
         vertex -1.681700e+00 -9.100000e-01 7.620000e-01
      endloop
   endfacet
   facet normal 1.000000e+00 0.000000e+00 0.000000e+00
      outer loop
         vertex -8.000000e-01 9.000000e-01 7.593000e-01
         vertex -8.000000e-01 -9.000000e-01 1.059300e+00
         vertex -8.000000e-01 -9.000000e-01 7.593000e-01
      endloop
   endfacet
   facet normal -4.875462e-01 -8.725649e-01 3.048168e-02
      outer loop
         vertex -1.150500e+00 -1.522100e+00 7.589000e-01
         vertex -8.875000e-01 -1.693400e+00 6.190000e-02
         vertex -6.975000e-01 -1.775200e+00 7.593000e-01
      endloop
   endfacet
   facet normal 9.928840e-01 1.166789e-01 2.382026e-02
      outer loop
         vertex -1.936000e-01 -1.038400e+00 5.930000e-02
         vertex -1.929000e-01 -1.187100e+00 7.585000e-01
         vertex -1.719000e-01 -1.223200e+00 6.000000e-02
      endloop
   endfacet
   facet normal 9.959265e-01 -8.798827e-02 -1.970968e-02
      outer loop
         vertex -1.936000e-01 -1.038400e+00 5.930000e-02
         vertex -1.761000e-01 -9.971000e-01 7.592000e-01
         vertex -1.929000e-01 -1.187100e+00 7.585000e-01
      endloop
   endfacet
   facet normal 5.470688e-01 8.366588e-01 -2.679309e-02
      outer loop
         vertex -3.700000e-03 -1.310800e+00 7.589000e-01
         vertex -1.719000e-01 -1.223200e+00 6.000000e-02
         vertex -1.929000e-01 -1.187100e+00 7.585000e-01
      endloop
   endfacet
   facet normal 3.796932e-01 9.247871e-01 2.453417e-02
      outer loop
         vertex -3.700000e-03 -1.310800e+00 7.589000e-01
         vertex 3.150000e-02 -1.306700e+00 5.960000e-02
         vertex -1.719000e-01 -1.223200e+00 6.000000e-02
      endloop
   endfacet
   facet normal -5.106651e-01 8.595313e-01 -2.066553e-02
      outer loop
         vertex 1.902000e-01 -1.195600e+00 7.589000e-01
         vertex 3.150000e-02 -1.306700e+00 5.960000e-02
         vertex -3.700000e-03 -1.310800e+00 7.589000e-01
      endloop
   endfacet
   facet normal -8.290740e-01 -3.269607e-02 -5.581821e-01
      outer loop
         vertex 8.608000e-01 -1.400000e+00 5.960000e-02
         vertex 6.481000e-01 -1.788800e+00 3.983000e-01
         vertex 5.995000e-01 -1.399800e+00 4.477000e-01
      endloop
   endfacet
   facet normal -8.185434e-01 -5.067334e-02 -5.722054e-01
      outer loop
         vertex 8.608000e-01 -1.400000e+00 5.960000e-02
         vertex 8.826000e-01 -1.700200e+00 5.500000e-02
         vertex 6.481000e-01 -1.788800e+00 3.983000e-01
      endloop
   endfacet
   facet normal 3.568044e-01 -9.341754e-01 2.629591e-03
      outer loop
         vertex 6.481000e-01 -1.788800e+00 3.983000e-01
         vertex 8.826000e-01 -1.700200e+00 5.500000e-02
         vertex 8.185000e-01 -1.722700e+00 7.594000e-01
      endloop
   endfacet
   facet normal 5.525169e-01 -8.331656e-01 2.366578e-02
      outer loop
         vertex 8.826000e-01 -1.700200e+00 5.500000e-02
         vertex 1.265300e+00 -1.426400e+00 7.595000e-01
         vertex 8.185000e-01 -1.722700e+00 7.594000e-01
      endloop
   endfacet
   facet normal -4.763436e-04 3.807951e-04 9.999998e-01
      outer loop
         vertex 1.265300e+00 -1.426400e+00 7.595000e-01
         vertex 1.902000e-01 -1.195600e+00 7.589000e-01
         vertex 8.185000e-01 -1.722700e+00 7.594000e-01
      endloop
   endfacet
   facet normal -6.454596e-01 7.633785e-01 2.520100e-02
      outer loop
         vertex 1.902000e-01 -1.195600e+00 7.589000e-01
         vertex 2.023000e-01 -1.162300e+00 6.010000e-02
         vertex 3.150000e-02 -1.306700e+00 5.960000e-02
      endloop
   endfacet
   facet normal -9.881874e-01 -1.513082e-01 -2.432118e-02
      outer loop
         vertex 1.523000e-01 -9.479000e-01 7.578000e-01
         vertex 2.023000e-01 -1.162300e+00 6.010000e-02
         vertex 1.902000e-01 -1.195600e+00 7.589000e-01
      endloop
   endfacet
   facet normal -7.618840e-04 -9.492953e-04 9.999993e-01
      outer loop
         vertex 1.674900e+00 -9.124000e-01 7.603000e-01
         vertex 1.902000e-01 -1.195600e+00 7.589000e-01
         vertex 1.265300e+00 -1.426400e+00 7.595000e-01
      endloop
   endfacet
   facet normal -1.129160e-03 9.761805e-04 9.999989e-01
      outer loop
         vertex 8.000000e-01 -9.000000e-01 7.593000e-01
         vertex 1.902000e-01 -1.195600e+00 7.589000e-01
         vertex 1.674900e+00 -9.124000e-01 7.603000e-01
      endloop
   endfacet
   facet normal -2.614709e-03 4.040767e-03 9.999884e-01
      outer loop
         vertex 8.000000e-01 -9.000000e-01 7.593000e-01
         vertex 1.523000e-01 -9.479000e-01 7.578000e-01
         vertex 1.902000e-01 -1.195600e+00 7.589000e-01
      endloop
   endfacet
   facet normal -5.819134e-05 -9.999999e-01 4.761559e-04
      outer loop
         vertex -8.585000e-01 -1.399900e+00 5.950000e-02
         vertex 8.608000e-01 -1.400000e+00 5.960000e-02
         vertex 5.995000e-01 -1.399800e+00 4.477000e-01
      endloop
   endfacet
   facet normal -6.402434e-01 -7.663245e-01 -5.324625e-02
      outer loop
         vertex -1.150500e+00 -1.522100e+00 7.589000e-01
         vertex -1.489800e+00 -1.190000e+00 5.910000e-02
         vertex -8.875000e-01 -1.693400e+00 6.190000e-02
      endloop
   endfacet
   facet normal -2.018810e-03 -7.977421e-03 -9.999661e-01
      outer loop
         vertex -8.875000e-01 -1.693400e+00 6.190000e-02
         vertex -1.489800e+00 -1.190000e+00 5.910000e-02
         vertex -8.585000e-01 -1.399900e+00 5.950000e-02
      endloop
   endfacet
   facet normal -3.101641e-04 4.034833e-03 -9.999918e-01
      outer loop
         vertex -8.585000e-01 -1.399900e+00 5.950000e-02
         vertex -1.719000e-01 -1.223200e+00 6.000000e-02
         vertex 3.150000e-02 -1.306700e+00 5.960000e-02
      endloop
   endfacet
   facet normal 5.819373e-05 5.172573e-04 -9.999999e-01
      outer loop
         vertex -8.585000e-01 -1.399900e+00 5.950000e-02
         vertex 3.150000e-02 -1.306700e+00 5.960000e-02
         vertex 8.608000e-01 -1.400000e+00 5.960000e-02
      endloop
   endfacet
   facet normal -3.172835e-04 3.032907e-05 -9.999999e-01
      outer loop
         vertex -4.669000e-01 -6.003000e-01 5.940000e-02
         vertex -1.936000e-01 -1.038400e+00 5.930000e-02
         vertex -8.585000e-01 -1.399900e+00 5.950000e-02
      endloop
   endfacet
   facet normal 1.653084e-03 -3.593726e-03 -9.999922e-01
      outer loop
         vertex -8.585000e-01 -1.399900e+00 5.950000e-02
         vertex -1.936000e-01 -1.038400e+00 5.930000e-02
         vertex -1.719000e-01 -1.223200e+00 6.000000e-02
      endloop
   endfacet
   facet normal 9.613746e-04 9.857877e-04 -9.999991e-01
      outer loop
         vertex -1.489800e+00 -1.190000e+00 5.910000e-02
         vertex -1.767800e+00 -7.160000e-01 5.930000e-02
         vertex -8.585000e-01 -1.399900e+00 5.950000e-02
      endloop
   endfacet
   facet normal 9.200026e-05 -1.701156e-04 -1.000000e+00
      outer loop
         vertex -1.767800e+00 -7.160000e-01 5.930000e-02
         vertex -4.669000e-01 -6.003000e-01 5.940000e-02
         vertex -8.585000e-01 -1.399900e+00 5.950000e-02
      endloop
   endfacet
   facet normal 1.931503e-02 -9.995334e-01 -2.366198e-02
      outer loop
         vertex -1.681700e+00 -9.100000e-01 7.620000e-01
         vertex -8.000000e-01 -9.000000e-01 1.059300e+00
         vertex -1.399800e+00 -9.116000e-01 1.059700e+00
      endloop
   endfacet
   facet normal -8.620973e-01 -5.056038e-01 -3.395560e-02
      outer loop
         vertex -1.681700e+00 -9.100000e-01 7.620000e-01
         vertex -1.767800e+00 -7.160000e-01 5.930000e-02
         vertex -1.489800e+00 -1.190000e+00 5.910000e-02
      endloop
   endfacet
   facet normal -7.539759e-01 -6.546026e-01 5.491646e-02
      outer loop
         vertex -1.681700e+00 -9.100000e-01 7.620000e-01
         vertex -1.489800e+00 -1.190000e+00 5.910000e-02
         vertex -1.150500e+00 -1.522100e+00 7.589000e-01
      endloop
   endfacet
   facet normal -9.195279e-01 -3.930026e-01 4.167917e-03
      outer loop
         vertex -1.681700e+00 -9.100000e-01 7.620000e-01
         vertex -1.728800e+00 -7.919000e-01 1.506700e+00
         vertex -1.767800e+00 -7.160000e-01 5.930000e-02
      endloop
   endfacet
   facet normal -1.585241e-01 -9.766705e-01 1.448615e-01
      outer loop
         vertex -1.399800e+00 -9.116000e-01 1.059700e+00
         vertex -1.728800e+00 -7.919000e-01 1.506700e+00
         vertex -1.681700e+00 -9.100000e-01 7.620000e-01
      endloop
   endfacet
   facet normal 7.798920e-01 -6.256717e-01 1.741978e-02
      outer loop
         vertex -9.710000e-02 -9.181000e-01 5.980000e-02
         vertex -1.761000e-01 -9.971000e-01 7.592000e-01
         vertex -1.936000e-01 -1.038400e+00 5.930000e-02
      endloop
   endfacet
   facet normal 6.418422e-01 -7.667070e-01 -1.410399e-02
      outer loop
         vertex -1.761000e-01 -9.971000e-01 7.592000e-01
         vertex -9.710000e-02 -9.181000e-01 5.980000e-02
         vertex -6.620000e-02 -9.051000e-01 7.593000e-01
      endloop
   endfacet
   facet normal -4.317551e-04 -5.712049e-04 9.999997e-01
      outer loop
         vertex -1.761000e-01 -9.971000e-01 7.592000e-01
         vertex -6.620000e-02 -9.051000e-01 7.593000e-01
         vertex -4.369000e-01 -6.249000e-01 7.593000e-01
      endloop
   endfacet
   facet normal 7.764506e-01 6.300798e-01 -1.113522e-02
      outer loop
         vertex -4.369000e-01 -6.249000e-01 7.593000e-01
         vertex -4.669000e-01 -6.003000e-01 5.940000e-02
         vertex -7.012000e-01 -2.992000e-01 7.594000e-01
      endloop
   endfacet
   facet normal 3.782413e-01 9.255632e-01 1.631894e-02
      outer loop
         vertex -4.369000e-01 -6.249000e-01 7.593000e-01
         vertex -9.300000e-02 -7.531000e-01 5.950000e-02
         vertex -4.669000e-01 -6.003000e-01 5.940000e-02
      endloop
   endfacet
   facet normal -9.840190e-04 -1.301841e-03 9.999987e-01
      outer loop
         vertex -4.369000e-01 -6.249000e-01 7.593000e-01
         vertex -6.620000e-02 -9.051000e-01 7.593000e-01
         vertex -5.690000e-02 -7.585000e-01 7.595000e-01
      endloop
   endfacet
   facet normal 3.316657e-01 9.433458e-01 -9.827183e-03
      outer loop
         vertex -5.690000e-02 -7.585000e-01 7.595000e-01
         vertex -9.300000e-02 -7.531000e-01 5.950000e-02
         vertex -4.369000e-01 -6.249000e-01 7.593000e-01
      endloop
   endfacet
   facet normal 8.089727e-01 5.875694e-01 1.803596e-02
      outer loop
         vertex -7.012000e-01 -2.992000e-01 7.594000e-01
         vertex -4.669000e-01 -6.003000e-01 5.940000e-02
         vertex -7.169000e-01 -2.561000e-01 5.950000e-02
      endloop
   endfacet
   facet normal 9.924093e-01 1.220918e-01 -1.474306e-02
      outer loop
         vertex -7.012000e-01 -2.992000e-01 7.594000e-01
         vertex -7.169000e-01 -2.561000e-01 5.950000e-02
         vertex -7.527000e-01 1.194000e-01 7.593000e-01
      endloop
   endfacet
   facet normal 0.000000e+00 -0.000000e+00 1.000000e+00
      outer loop
         vertex -7.527000e-01 1.194000e-01 7.593000e-01
         vertex -5.920000e-01 4.745000e-01 7.593000e-01
         vertex -8.000000e-01 9.000000e-01 7.593000e-01
      endloop
   endfacet
   facet normal 9.981006e-01 5.835342e-02 1.974898e-02
      outer loop
         vertex -7.527000e-01 1.194000e-01 7.593000e-01
         vertex -7.169000e-01 -2.561000e-01 5.950000e-02
         vertex -7.418000e-01 1.698000e-01 5.950000e-02
      endloop
   endfacet
   facet normal 9.109411e-01 -4.122451e-01 -1.550139e-02
      outer loop
         vertex -7.527000e-01 1.194000e-01 7.593000e-01
         vertex -7.418000e-01 1.698000e-01 5.950000e-02
         vertex -5.920000e-01 4.745000e-01 7.593000e-01
      endloop
   endfacet
   facet normal -4.620379e-04 -5.017169e-04 9.999998e-01
      outer loop
         vertex -6.759000e-01 1.782300e+00 7.598000e-01
         vertex -1.329800e+00 1.387900e+00 7.593000e-01
         vertex -8.000000e-01 9.000000e-01 7.593000e-01
      endloop
   endfacet
   facet normal 3.304574e-03 3.588366e-03 9.999881e-01
      outer loop
         vertex -8.000000e-01 9.000000e-01 7.593000e-01
         vertex -1.329800e+00 1.387900e+00 7.593000e-01
         vertex -1.662600e+00 9.141000e-01 7.621000e-01
      endloop
   endfacet
   facet normal 4.158501e-04 -6.251963e-04 9.999997e-01
      outer loop
         vertex -8.000000e-01 9.000000e-01 7.593000e-01
         vertex 4.700000e-03 1.915100e+00 7.596000e-01
         vertex -6.759000e-01 1.782300e+00 7.598000e-01
      endloop
   endfacet
   facet normal 2.703144e-03 -2.438401e-03 9.999934e-01
      outer loop
         vertex -2.068000e-01 1.147500e+00 7.583000e-01
         vertex 4.700000e-03 1.915100e+00 7.596000e-01
         vertex -8.000000e-01 9.000000e-01 7.593000e-01
      endloop
   endfacet
   facet normal 6.499533e-04 2.482634e-03 9.999967e-01
      outer loop
         vertex -8.000000e-01 9.000000e-01 7.593000e-01
         vertex -1.178000e-01 9.228000e-01 7.588000e-01
         vertex -2.068000e-01 1.147500e+00 7.583000e-01
      endloop
   endfacet
   facet normal 7.211465e-04 3.525228e-04 9.999997e-01
      outer loop
         vertex -5.920000e-01 4.745000e-01 7.593000e-01
         vertex -1.178000e-01 9.228000e-01 7.588000e-01
         vertex -8.000000e-01 9.000000e-01 7.593000e-01
      endloop
   endfacet
   facet normal 1.383663e-02 9.999043e-01 0.000000e+00
      outer loop
         vertex -8.000000e-01 9.000000e-01 1.059300e+00
         vertex -8.000000e-01 9.000000e-01 7.593000e-01
         vertex -1.399800e+00 9.083000e-01 1.060100e+00
      endloop
   endfacet
   facet normal 1.635986e-02 9.998535e-01 5.032765e-03
      outer loop
         vertex -1.399800e+00 9.083000e-01 1.060100e+00
         vertex -8.000000e-01 9.000000e-01 7.593000e-01
         vertex -1.662600e+00 9.141000e-01 7.621000e-01
      endloop
   endfacet
   facet normal 1.000000e+00 0.000000e+00 0.000000e+00
      outer loop
         vertex -8.000000e-01 9.000000e-01 1.059300e+00
         vertex -8.000000e-01 -9.000000e-01 1.059300e+00
         vertex -8.000000e-01 9.000000e-01 7.593000e-01
      endloop
   endfacet
   facet normal -1.405277e-02 0.000000e+00 9.999013e-01
      outer loop
         vertex -8.000000e-01 9.000000e-01 1.059300e+00
         vertex -8.925000e-01 2.810000e-02 1.058000e+00
         vertex -8.000000e-01 -9.000000e-01 1.059300e+00
      endloop
   endfacet
   facet normal 3.584053e-03 1.757919e-03 9.999920e-01
      outer loop
         vertex -8.925000e-01 2.810000e-02 1.058000e+00
         vertex -9.878000e-01 -1.758000e-01 1.058700e+00
         vertex -8.000000e-01 -9.000000e-01 1.059300e+00
      endloop
   endfacet
   facet normal 6.476225e-04 9.964480e-04 9.999993e-01
      outer loop
         vertex -8.000000e-01 -9.000000e-01 1.059300e+00
         vertex -9.878000e-01 -1.758000e-01 1.058700e+00
         vertex -1.399800e+00 -9.116000e-01 1.059700e+00
      endloop
   endfacet
   facet normal 2.754571e-03 1.946643e-03 -9.999943e-01
      outer loop
         vertex -9.710000e-02 -9.181000e-01 5.980000e-02
         vertex -1.936000e-01 -1.038400e+00 5.930000e-02
         vertex -4.669000e-01 -6.003000e-01 5.940000e-02
      endloop
   endfacet
   facet normal 3.438051e-04 3.055926e-03 -9.999953e-01
      outer loop
         vertex 8.608000e-01 -1.400000e+00 5.960000e-02
         vertex 3.150000e-02 -1.306700e+00 5.960000e-02
         vertex 2.023000e-01 -1.162300e+00 6.010000e-02
      endloop
   endfacet
   facet normal -5.894684e-03 1.489308e-02 -9.998717e-01
      outer loop
         vertex 8.826000e-01 -1.700200e+00 5.500000e-02
         vertex 8.608000e-01 -1.400000e+00 5.960000e-02
         vertex 1.513000e+00 -1.162000e+00 5.930000e-02
      endloop
   endfacet
   facet normal -4.783471e-04 5.033340e-05 -9.999999e-01
      outer loop
         vertex 8.608000e-01 -1.400000e+00 5.960000e-02
         vertex 1.769900e+00 -7.073000e-01 5.920000e-02
         vertex 1.513000e+00 -1.162000e+00 5.930000e-02
      endloop
   endfacet
   facet normal -6.566591e-04 2.843503e-04 -9.999997e-01
      outer loop
         vertex 8.608000e-01 -1.400000e+00 5.960000e-02
         vertex 2.023000e-01 -1.162300e+00 6.010000e-02
         vertex 1.769900e+00 -7.073000e-01 5.920000e-02
      endloop
   endfacet
   facet normal 6.484611e-01 -7.590927e-01 -5.724123e-02
      outer loop
         vertex 1.513000e+00 -1.162000e+00 5.930000e-02
         vertex 1.265300e+00 -1.426400e+00 7.595000e-01
         vertex 8.826000e-01 -1.700200e+00 5.500000e-02
      endloop
   endfacet
   facet normal 7.813574e-01 -6.227179e-01 4.126767e-02
      outer loop
         vertex 1.513000e+00 -1.162000e+00 5.930000e-02
         vertex 1.674900e+00 -9.124000e-01 7.603000e-01
         vertex 1.265300e+00 -1.426400e+00 7.595000e-01
      endloop
   endfacet
   facet normal -4.123255e-04 -5.574458e-04 -9.999998e-01
      outer loop
         vertex 1.769900e+00 -7.073000e-01 5.920000e-02
         vertex 2.023000e-01 -1.162300e+00 6.010000e-02
         vertex 1.209000e-01 -9.227000e-01 6.000000e-02
      endloop
   endfacet
   facet normal -9.463994e-01 -3.215100e-01 3.097575e-02
      outer loop
         vertex 1.523000e-01 -9.479000e-01 7.578000e-01
         vertex 1.209000e-01 -9.227000e-01 6.000000e-02
         vertex 2.023000e-01 -1.162300e+00 6.010000e-02
      endloop
   endfacet
   facet normal 2.002135e-04 -3.400463e-02 9.994217e-01
      outer loop
         vertex -6.620000e-02 -9.051000e-01 7.593000e-01
         vertex 1.523000e-01 -9.479000e-01 7.578000e-01
         vertex 8.000000e-01 -9.000000e-01 7.593000e-01
      endloop
   endfacet
   facet normal -1.923359e-01 -9.809639e-01 -2.677123e-02
      outer loop
         vertex -6.620000e-02 -9.051000e-01 7.593000e-01
         vertex 1.209000e-01 -9.227000e-01 6.000000e-02
         vertex 1.523000e-01 -9.479000e-01 7.578000e-01
      endloop
   endfacet
   facet normal 8.703535e-01 -4.917448e-01 -2.592110e-02
      outer loop
         vertex 1.769900e+00 -7.073000e-01 5.920000e-02
         vertex 1.674900e+00 -9.124000e-01 7.603000e-01
         vertex 1.513000e+00 -1.162000e+00 5.930000e-02
      endloop
   endfacet
   facet normal 9.097077e-01 -4.152453e-01 1.790650e-03
      outer loop
         vertex 1.769900e+00 -7.073000e-01 5.920000e-02
         vertex 1.736100e+00 -7.750000e-01 1.531300e+00
         vertex 1.674900e+00 -9.124000e-01 7.603000e-01
      endloop
   endfacet
   facet normal 2.287247e-01 -9.478185e-01 2.220924e-01
      outer loop
         vertex 1.399100e+00 -9.088000e-01 1.059700e+00
         vertex 1.674900e+00 -9.124000e-01 7.603000e-01
         vertex 1.401000e+00 -8.066000e-01 1.493900e+00
      endloop
   endfacet
   facet normal 7.378414e-02 -9.828008e-01 1.692882e-01
      outer loop
         vertex 1.401000e+00 -8.066000e-01 1.493900e+00
         vertex 1.674900e+00 -9.124000e-01 7.603000e-01
         vertex 1.736100e+00 -7.750000e-01 1.531300e+00
      endloop
   endfacet
   facet normal -1.417048e-02 -9.998991e-01 -1.030577e-03
      outer loop
         vertex 1.399100e+00 -9.088000e-01 1.059700e+00
         vertex 8.000000e-01 -9.000000e-01 7.593000e-01
         vertex 1.674900e+00 -9.124000e-01 7.603000e-01
      endloop
   endfacet
   facet normal 2.645514e-03 0.000000e+00 9.999965e-01
      outer loop
         vertex 8.000000e-01 9.000000e-01 7.593000e-01
         vertex 7.622000e-01 -4.800000e-03 7.594000e-01
         vertex 8.000000e-01 -9.000000e-01 7.593000e-01
      endloop
   endfacet
   facet normal 5.388598e-06 -9.152094e-04 9.999996e-01
      outer loop
         vertex 8.000000e-01 -9.000000e-01 7.593000e-01
         vertex 3.362000e-01 -6.842000e-01 7.595000e-01
         vertex -6.620000e-02 -9.051000e-01 7.593000e-01
      endloop
   endfacet
   facet normal 2.842531e-04 -3.158708e-04 9.999999e-01
      outer loop
         vertex 6.459000e-01 -4.055000e-01 7.595000e-01
         vertex 3.362000e-01 -6.842000e-01 7.595000e-01
         vertex 8.000000e-01 -9.000000e-01 7.593000e-01
      endloop
   endfacet
   facet normal 1.086642e-03 -6.582401e-05 9.999994e-01
      outer loop
         vertex 7.622000e-01 -4.800000e-03 7.594000e-01
         vertex 6.459000e-01 -4.055000e-01 7.595000e-01
         vertex 8.000000e-01 -9.000000e-01 7.593000e-01
      endloop
   endfacet
   facet normal -1.468713e-02 -9.998921e-01 -0.000000e+00
      outer loop
         vertex 8.000000e-01 -9.000000e-01 1.059300e+00
         vertex 8.000000e-01 -9.000000e-01 7.593000e-01
         vertex 1.399100e+00 -9.088000e-01 1.059700e+00
      endloop
   endfacet
   facet normal -1.000000e+00 0.000000e+00 0.000000e+00
      outer loop
         vertex 8.000000e-01 -9.000000e-01 1.059300e+00
         vertex 8.000000e-01 9.000000e-01 1.059300e+00
         vertex 8.000000e-01 -9.000000e-01 7.593000e-01
      endloop
   endfacet
   facet normal -1.000000e+00 0.000000e+00 0.000000e+00
      outer loop
         vertex 8.000000e-01 -9.000000e-01 7.593000e-01
         vertex 8.000000e-01 9.000000e-01 1.059300e+00
         vertex 8.000000e-01 9.000000e-01 7.593000e-01
      endloop
   endfacet
   facet normal -6.293935e-03 -4.280911e-03 -9.999710e-01
      outer loop
         vertex -8.974000e-01 -6.080000e-02 5.980000e-02
         vertex -7.169000e-01 -2.561000e-01 5.950000e-02
         vertex -4.669000e-01 -6.003000e-01 5.940000e-02
      endloop
   endfacet
   facet normal -2.883705e-05 7.184152e-04 -9.999997e-01
      outer loop
         vertex -4.669000e-01 -6.003000e-01 5.940000e-02
         vertex -1.066900e+00 -2.068000e-01 5.970000e-02
         vertex -8.974000e-01 -6.080000e-02 5.980000e-02
      endloop
   endfacet
   facet normal 7.982551e-06 7.745568e-04 -9.999997e-01
      outer loop
         vertex -1.767800e+00 -7.160000e-01 5.930000e-02
         vertex -1.066900e+00 -2.068000e-01 5.970000e-02
         vertex -4.669000e-01 -6.003000e-01 5.940000e-02
      endloop
   endfacet
   facet normal -4.708083e-04 -1.806493e-03 -9.999983e-01
      outer loop
         vertex -9.300000e-02 -7.531000e-01 5.950000e-02
         vertex -9.710000e-02 -9.181000e-01 5.980000e-02
         vertex -4.669000e-01 -6.003000e-01 5.940000e-02
      endloop
   endfacet
   facet normal -1.019740e-03 2.189188e-03 -9.999971e-01
      outer loop
         vertex -1.767800e+00 -7.160000e-01 5.930000e-02
         vertex -1.274100e+00 -1.206000e-01 6.010000e-02
         vertex -1.066900e+00 -2.068000e-01 5.970000e-02
      endloop
   endfacet
   facet normal -9.325477e-01 -3.609936e-01 6.197252e-03
      outer loop
         vertex -1.728800e+00 -7.919000e-01 1.506700e+00
         vertex -1.820800e+00 -5.495000e-01 1.782700e+00
         vertex -1.767800e+00 -7.160000e-01 5.930000e-02
      endloop
   endfacet
   facet normal 1.607117e-03 1.102489e-05 -9.999987e-01
      outer loop
         vertex -1.767800e+00 -7.160000e-01 5.930000e-02
         vertex -1.895800e+00 -1.981000e-01 5.910000e-02
         vertex -1.274100e+00 -1.206000e-01 6.010000e-02
      endloop
   endfacet
   facet normal -9.707673e-01 -2.399297e-01 -6.674264e-03
      outer loop
         vertex -1.820800e+00 -5.495000e-01 1.782700e+00
         vertex -1.895800e+00 -1.981000e-01 5.910000e-02
         vertex -1.767800e+00 -7.160000e-01 5.930000e-02
      endloop
   endfacet
   facet normal 1.641196e-02 -2.197644e-04 9.998653e-01
      outer loop
         vertex -1.399800e+00 -9.116000e-01 1.059700e+00
         vertex -1.307900e+00 3.680000e-02 1.058400e+00
         vertex -1.399800e+00 9.083000e-01 1.060100e+00
      endloop
   endfacet
   facet normal 4.156123e-03 9.679990e-04 9.999909e-01
      outer loop
         vertex -1.399800e+00 -9.116000e-01 1.059700e+00
         vertex -1.209400e+00 -1.795000e-01 1.058200e+00
         vertex -1.307900e+00 3.680000e-02 1.058400e+00
      endloop
   endfacet
   facet normal -2.300520e-03 2.647208e-03 9.999938e-01
      outer loop
         vertex -1.399800e+00 -9.116000e-01 1.059700e+00
         vertex -9.878000e-01 -1.758000e-01 1.058700e+00
         vertex -1.209400e+00 -1.795000e-01 1.058200e+00
      endloop
   endfacet
   facet normal 9.999994e-01 2.401754e-07 -1.092730e-03
      outer loop
         vertex -1.399800e+00 9.083000e-01 1.060100e+00
         vertex -1.399300e+00 -7.886000e-01 1.517300e+00
         vertex -1.399800e+00 -9.116000e-01 1.059700e+00
      endloop
   endfacet
   facet normal 1.321082e-03 -9.657212e-01 2.595783e-01
      outer loop
         vertex -1.399300e+00 -7.886000e-01 1.517300e+00
         vertex -1.728800e+00 -7.919000e-01 1.506700e+00
         vertex -1.399800e+00 -9.116000e-01 1.059700e+00
      endloop
   endfacet
   facet normal -1.359772e-02 -7.535347e-01 6.572674e-01
      outer loop
         vertex -1.399300e+00 -7.886000e-01 1.517300e+00
         vertex -1.820800e+00 -5.495000e-01 1.782700e+00
         vertex -1.728800e+00 -7.919000e-01 1.506700e+00
      endloop
   endfacet
   facet normal -2.110999e-02 -9.995868e-01 1.950952e-02
      outer loop
         vertex -6.620000e-02 -9.051000e-01 7.593000e-01
         vertex -9.710000e-02 -9.181000e-01 5.980000e-02
         vertex 1.209000e-01 -9.227000e-01 6.000000e-02
      endloop
   endfacet
   facet normal 8.785936e-04 -1.840023e-03 -9.999979e-01
      outer loop
         vertex -9.300000e-02 -7.531000e-01 5.950000e-02
         vertex 1.209000e-01 -9.227000e-01 6.000000e-02
         vertex -9.710000e-02 -9.181000e-01 5.980000e-02
      endloop
   endfacet
   facet normal 2.609899e-04 -1.380822e-03 9.999990e-01
      outer loop
         vertex -6.620000e-02 -9.051000e-01 7.593000e-01
         vertex 3.362000e-01 -6.842000e-01 7.595000e-01
         vertex -5.690000e-02 -7.585000e-01 7.595000e-01
      endloop
   endfacet
   facet normal -1.397656e-01 9.900733e-01 1.484568e-02
      outer loop
         vertex -5.690000e-02 -7.585000e-01 7.595000e-01
         vertex 3.016000e-01 -6.974000e-01 5.980000e-02
         vertex -9.300000e-02 -7.531000e-01 5.950000e-02
      endloop
   endfacet
   facet normal 9.986281e-04 -1.688636e-03 -9.999981e-01
      outer loop
         vertex -9.300000e-02 -7.531000e-01 5.950000e-02
         vertex 3.016000e-01 -6.974000e-01 5.980000e-02
         vertex 1.209000e-01 -9.227000e-01 6.000000e-02
      endloop
   endfacet
   facet normal -1.857141e-01 9.825593e-01 -9.352748e-03
      outer loop
         vertex 3.362000e-01 -6.842000e-01 7.595000e-01
         vertex 3.016000e-01 -6.974000e-01 5.980000e-02
         vertex -5.690000e-02 -7.585000e-01 7.595000e-01
      endloop
   endfacet
   facet normal -1.774299e-03 -1.037334e-04 -9.999984e-01
      outer loop
         vertex -7.169000e-01 -2.561000e-01 5.950000e-02
         vertex -8.974000e-01 -6.080000e-02 5.980000e-02
         vertex -7.418000e-01 1.698000e-01 5.950000e-02
      endloop
   endfacet
   facet normal 8.782249e-01 -4.778271e-01 2.005695e-02
      outer loop
         vertex -5.920000e-01 4.745000e-01 7.593000e-01
         vertex -7.418000e-01 1.698000e-01 5.950000e-02
         vertex -5.480000e-01 5.260000e-01 5.960000e-02
      endloop
   endfacet
   facet normal 1.789491e-04 9.260449e-04 9.999996e-01
      outer loop
         vertex -1.178000e-01 9.228000e-01 7.588000e-01
         vertex -5.920000e-01 4.745000e-01 7.593000e-01
         vertex -2.341000e-01 7.293000e-01 7.590000e-01
      endloop
   endfacet
   facet normal 5.797941e-01 -8.144245e-01 -2.348418e-02
      outer loop
         vertex -5.920000e-01 4.745000e-01 7.593000e-01
         vertex -5.480000e-01 5.260000e-01 5.960000e-02
         vertex -2.341000e-01 7.293000e-01 7.590000e-01
      endloop
   endfacet
   facet normal 1.026224e-03 -1.993417e-03 -9.999975e-01
      outer loop
         vertex -8.974000e-01 -6.080000e-02 5.980000e-02
         vertex -9.352000e-01 1.204000e-01 5.940000e-02
         vertex -7.418000e-01 1.698000e-01 5.950000e-02
      endloop
   endfacet
   facet normal 5.172173e-04 -6.624854e-07 -9.999999e-01
      outer loop
         vertex -7.418000e-01 1.698000e-01 5.950000e-02
         vertex -9.352000e-01 1.204000e-01 5.940000e-02
         vertex -5.480000e-01 5.260000e-01 5.960000e-02
      endloop
   endfacet
   facet normal -3.641634e-01 9.312168e-01 -1.484399e-02
      outer loop
         vertex -6.181000e-01 1.799600e+00 4.271000e-01
         vertex -8.628000e-01 1.698100e+00 6.280000e-02
         vertex -6.759000e-01 1.782300e+00 7.598000e-01
      endloop
   endfacet
   facet normal -5.161805e-01 8.557630e-01 3.503433e-02
      outer loop
         vertex -8.628000e-01 1.698100e+00 6.280000e-02
         vertex -1.329800e+00 1.387900e+00 7.593000e-01
         vertex -6.759000e-01 1.782300e+00 7.598000e-01
      endloop
   endfacet
   facet normal -2.457110e-01 9.693124e-01 7.715702e-03
      outer loop
         vertex -3.214000e-01 1.873400e+00 6.043000e-01
         vertex -6.181000e-01 1.799600e+00 4.271000e-01
         vertex -6.759000e-01 1.782300e+00 7.598000e-01
      endloop
   endfacet
   facet normal -1.896606e-01 9.722169e-01 1.371977e-01
      outer loop
         vertex 4.700000e-03 1.915100e+00 7.596000e-01
         vertex -3.214000e-01 1.873400e+00 6.043000e-01
         vertex -6.759000e-01 1.782300e+00 7.598000e-01
      endloop
   endfacet
   facet normal -5.767697e-01 8.165818e-01 -2.304058e-02
      outer loop
         vertex -1.327600e+00 1.369700e+00 5.920000e-02
         vertex -1.329800e+00 1.387900e+00 7.593000e-01
         vertex -8.628000e-01 1.698100e+00 6.280000e-02
      endloop
   endfacet
   facet normal -7.975568e-01 6.029698e-01 -1.818126e-02
      outer loop
         vertex -1.678600e+00 9.054000e-01 5.830000e-02
         vertex -1.329800e+00 1.387900e+00 7.593000e-01
         vertex -1.327600e+00 1.369700e+00 5.920000e-02
      endloop
   endfacet
   facet normal -8.182199e-01 5.747905e-01 1.149598e-02
      outer loop
         vertex -1.678600e+00 9.054000e-01 5.830000e-02
         vertex -1.662600e+00 9.141000e-01 7.621000e-01
         vertex -1.329800e+00 1.387900e+00 7.593000e-01
      endloop
   endfacet
   facet normal -1.815771e-01 9.611726e-01 2.077905e-01
      outer loop
         vertex -1.402000e+00 8.029000e-01 1.504200e+00
         vertex -1.662600e+00 9.141000e-01 7.621000e-01
         vertex -1.767500e+00 7.059000e-01 1.633500e+00
      endloop
   endfacet
   facet normal -2.325437e-01 9.465579e-01 2.234983e-01
      outer loop
         vertex -1.399800e+00 9.083000e-01 1.060100e+00
         vertex -1.662600e+00 9.141000e-01 7.621000e-01
         vertex -1.402000e+00 8.029000e-01 1.504200e+00
      endloop
   endfacet
   facet normal -8.688735e-01 4.948464e-01 1.363575e-02
      outer loop
         vertex -1.678600e+00 9.054000e-01 5.830000e-02
         vertex -1.767500e+00 7.059000e-01 1.633500e+00
         vertex -1.662600e+00 9.141000e-01 7.621000e-01
      endloop
   endfacet
   facet normal -6.837019e-04 -7.192444e-04 9.999995e-01
      outer loop
         vertex -7.060001e-02 1.291500e+00 7.591000e-01
         vertex 7.640000e-02 1.290800e+00 7.592000e-01
         vertex 4.700000e-03 1.915100e+00 7.596000e-01
      endloop
   endfacet
   facet normal -5.761503e-03 -1.060846e-04 9.999834e-01
      outer loop
         vertex 4.700000e-03 1.915100e+00 7.596000e-01
         vertex -2.068000e-01 1.147500e+00 7.583000e-01
         vertex -7.060001e-02 1.291500e+00 7.591000e-01
      endloop
   endfacet
   facet normal -3.043527e-02 9.795060e-01 -1.991020e-01
      outer loop
         vertex 4.700000e-03 1.915100e+00 7.596000e-01
         vertex 1.659000e-01 1.900900e+00 6.651000e-01
         vertex -3.214000e-01 1.873400e+00 6.043000e-01
      endloop
   endfacet
   facet normal 1.864180e-01 9.671793e-01 1.726629e-01
      outer loop
         vertex 6.546000e-01 1.789800e+00 7.598000e-01
         vertex 1.659000e-01 1.900900e+00 6.651000e-01
         vertex 4.700000e-03 1.915100e+00 7.596000e-01
      endloop
   endfacet
   facet normal -4.410383e-04 -6.913749e-04 9.999997e-01
      outer loop
         vertex 4.700000e-03 1.915100e+00 7.596000e-01
         vertex 7.640000e-02 1.290800e+00 7.592000e-01
         vertex 6.546000e-01 1.789800e+00 7.598000e-01
      endloop
   endfacet
   facet normal 9.292748e-01 3.679993e-01 -3.201476e-02
      outer loop
         vertex -2.124000e-01 1.100900e+00 6.010000e-02
         vertex -2.068000e-01 1.147500e+00 7.583000e-01
         vertex -1.178000e-01 9.228000e-01 7.588000e-01
      endloop
   endfacet
   facet normal 8.631822e-01 -5.041847e-01 2.672757e-02
      outer loop
         vertex -1.146000e-01 1.268300e+00 5.940000e-02
         vertex -2.068000e-01 1.147500e+00 7.583000e-01
         vertex -2.124000e-01 1.100900e+00 6.010000e-02
      endloop
   endfacet
   facet normal 7.263823e-01 -6.869092e-01 -2.290194e-02
      outer loop
         vertex -2.068000e-01 1.147500e+00 7.583000e-01
         vertex -1.146000e-01 1.268300e+00 5.940000e-02
         vertex -7.060001e-02 1.291500e+00 7.591000e-01
      endloop
   endfacet
   facet normal 8.370536e-01 5.465041e-01 2.597270e-02
      outer loop
         vertex -2.124000e-01 1.100900e+00 6.010000e-02
         vertex -1.178000e-01 9.228000e-01 7.588000e-01
         vertex -8.670000e-02 9.084000e-01 5.950000e-02
      endloop
   endfacet
   facet normal -2.150295e-03 2.325995e-03 9.999950e-01
      outer loop
         vertex -1.178000e-01 9.228000e-01 7.588000e-01
         vertex -2.341000e-01 7.293000e-01 7.590000e-01
         vertex 1.104000e-01 9.188000e-01 7.593000e-01
      endloop
   endfacet
   facet normal 1.756561e-02 9.996496e-01 -1.980360e-02
      outer loop
         vertex 1.104000e-01 9.188000e-01 7.593000e-01
         vertex -8.670000e-02 9.084000e-01 5.950000e-02
         vertex -1.178000e-01 9.228000e-01 7.588000e-01
      endloop
   endfacet
   facet normal 1.308701e-03 -1.812667e-03 9.999975e-01
      outer loop
         vertex -1.399800e+00 9.083000e-01 1.060100e+00
         vertex -1.307900e+00 3.680000e-02 1.058400e+00
         vertex -8.000000e-01 9.000000e-01 1.059300e+00
      endloop
   endfacet
   facet normal -1.301541e-02 6.615635e-03 9.998934e-01
      outer loop
         vertex -1.307900e+00 3.680000e-02 1.058400e+00
         vertex -1.176100e+00 1.903000e-01 1.059100e+00
         vertex -8.000000e-01 9.000000e-01 1.059300e+00
      endloop
   endfacet
   facet normal 5.332540e-03 -2.056714e-03 9.999837e-01
      outer loop
         vertex -1.018200e+00 1.884000e-01 1.059000e+00
         vertex -8.925000e-01 2.810000e-02 1.058000e+00
         vertex -8.000000e-01 9.000000e-01 1.059300e+00
      endloop
   endfacet
   facet normal 6.259342e-04 -6.135202e-04 9.999996e-01
      outer loop
         vertex -8.000000e-01 9.000000e-01 1.059300e+00
         vertex -1.176100e+00 1.903000e-01 1.059100e+00
         vertex -1.018200e+00 1.884000e-01 1.059000e+00
      endloop
   endfacet
   facet normal 9.999987e-01 1.180283e-03 1.078273e-03
      outer loop
         vertex -1.399800e+00 9.083000e-01 1.060100e+00
         vertex -1.399700e+00 -3.300000e-03 1.965200e+00
         vertex -1.399100e+00 -4.224000e-01 1.867500e+00
      endloop
   endfacet
   facet normal 9.999995e-01 -6.394686e-04 -7.545467e-04
      outer loop
         vertex -1.399800e+00 9.083000e-01 1.060100e+00
         vertex -1.399500e+00 4.238000e-01 1.868300e+00
         vertex -1.399700e+00 -3.300000e-03 1.965200e+00
      endloop
   endfacet
   facet normal 9.999998e-01 1.098368e-04 -6.859615e-04
      outer loop
         vertex -1.399100e+00 -4.224000e-01 1.867500e+00
         vertex -1.399300e+00 -7.886000e-01 1.517300e+00
         vertex -1.399800e+00 9.083000e-01 1.060100e+00
      endloop
   endfacet
   facet normal 9.998563e-01 1.470209e-02 8.442469e-03
      outer loop
         vertex -1.399500e+00 4.238000e-01 1.868300e+00
         vertex -1.399800e+00 9.083000e-01 1.060100e+00
         vertex -1.402000e+00 8.029000e-01 1.504200e+00
      endloop
   endfacet
   facet normal -9.054766e-01 4.230928e-01 -3.323591e-02
      outer loop
         vertex -8.925000e-01 2.810000e-02 1.058000e+00
         vertex -8.974000e-01 -6.080000e-02 5.980000e-02
         vertex -9.878000e-01 -1.758000e-01 1.058700e+00
      endloop
   endfacet
   facet normal -9.786780e-01 -2.041106e-01 2.298236e-02
      outer loop
         vertex -8.925000e-01 2.810000e-02 1.058000e+00
         vertex -9.352000e-01 1.204000e-01 5.940000e-02
         vertex -8.974000e-01 -6.080000e-02 5.980000e-02
      endloop
   endfacet
   facet normal -7.867701e-01 -6.168036e-01 -2.336858e-02
      outer loop
         vertex -1.018200e+00 1.884000e-01 1.059000e+00
         vertex -9.352000e-01 1.204000e-01 5.940000e-02
         vertex -8.925000e-01 2.810000e-02 1.058000e+00
      endloop
   endfacet
   facet normal -6.523810e-01 7.573681e-01 2.815309e-02
      outer loop
         vertex -9.878000e-01 -1.758000e-01 1.058700e+00
         vertex -8.974000e-01 -6.080000e-02 5.980000e-02
         vertex -1.066900e+00 -2.068000e-01 5.970000e-02
      endloop
   endfacet
   facet normal -1.662006e-02 9.994208e-01 -2.969710e-02
      outer loop
         vertex -9.878000e-01 -1.758000e-01 1.058700e+00
         vertex -1.066900e+00 -2.068000e-01 5.970000e-02
         vertex -1.209400e+00 -1.795000e-01 1.058200e+00
      endloop
   endfacet
   facet normal 7.855983e-04 1.802190e-03 -9.999981e-01
      outer loop
         vertex 1.769900e+00 -7.073000e-01 5.920000e-02
         vertex 1.130900e+00 -2.068000e-01 5.960000e-02
         vertex 1.303300e+00 -6.000000e-02 6.000000e-02
      endloop
   endfacet
   facet normal -1.029199e-04 6.677992e-04 -9.999998e-01
      outer loop
         vertex 6.238000e-01 -4.347000e-01 5.950000e-02
         vertex 1.130900e+00 -2.068000e-01 5.960000e-02
         vertex 1.769900e+00 -7.073000e-01 5.920000e-02
      endloop
   endfacet
   facet normal -4.059512e-04 -6.062442e-04 -9.999997e-01
      outer loop
         vertex 1.769900e+00 -7.073000e-01 5.920000e-02
         vertex 1.209000e-01 -9.227000e-01 6.000000e-02
         vertex 6.238000e-01 -4.347000e-01 5.950000e-02
      endloop
   endfacet
   facet normal 9.353681e-01 -3.536373e-01 5.213099e-03
      outer loop
         vertex 1.824700e+00 -5.368000e-01 1.792700e+00
         vertex 1.736100e+00 -7.750000e-01 1.531300e+00
         vertex 1.769900e+00 -7.073000e-01 5.920000e-02
      endloop
   endfacet
   facet normal 9.708181e-01 -2.397115e-01 -7.112832e-03
      outer loop
         vertex 1.898100e+00 -1.881000e-01 5.930000e-02
         vertex 1.824700e+00 -5.368000e-01 1.792700e+00
         vertex 1.769900e+00 -7.073000e-01 5.920000e-02
      endloop
   endfacet
   facet normal -1.078053e-03 4.587964e-04 -9.999993e-01
      outer loop
         vertex 1.769900e+00 -7.073000e-01 5.920000e-02
         vertex 1.303300e+00 -6.000000e-02 6.000000e-02
         vertex 1.898100e+00 -1.881000e-01 5.930000e-02
      endloop
   endfacet
   facet normal -5.991243e-04 -4.071730e-04 -9.999997e-01
      outer loop
         vertex 3.016000e-01 -6.974000e-01 5.980000e-02
         vertex 6.238000e-01 -4.347000e-01 5.950000e-02
         vertex 1.209000e-01 -9.227000e-01 6.000000e-02
      endloop
   endfacet
   facet normal -5.679553e-03 -7.381752e-01 6.745851e-01
      outer loop
         vertex 1.401000e+00 -8.066000e-01 1.493900e+00
         vertex 1.736100e+00 -7.750000e-01 1.531300e+00
         vertex 1.824700e+00 -5.368000e-01 1.792700e+00
      endloop
   endfacet
   facet normal 3.422959e-04 1.151609e-03 9.999993e-01
      outer loop
         vertex 1.290500e+00 -9.500000e-02 1.058800e+00
         vertex 1.095800e+00 -2.108000e-01 1.059000e+00
         vertex 1.399100e+00 -9.088000e-01 1.059700e+00
      endloop
   endfacet
   facet normal -9.999908e-01 4.934601e-04 4.259709e-03
      outer loop
         vertex 1.400000e+00 9.116000e-01 1.060100e+00
         vertex 1.399100e+00 -9.088000e-01 1.059700e+00
         vertex 1.401000e+00 -8.066000e-01 1.493900e+00
      endloop
   endfacet
   facet normal -9.896799e-03 -2.148298e-04 9.999510e-01
      outer loop
         vertex 1.400000e+00 9.116000e-01 1.060100e+00
         vertex 1.290500e+00 -9.500000e-02 1.058800e+00
         vertex 1.399100e+00 -9.088000e-01 1.059700e+00
      endloop
   endfacet
   facet normal -6.571363e-04 7.173289e-04 9.999995e-01
      outer loop
         vertex 1.399100e+00 -9.088000e-01 1.059700e+00
         vertex 1.095800e+00 -2.108000e-01 1.059000e+00
         vertex 8.000000e-01 -9.000000e-01 1.059300e+00
      endloop
   endfacet
   facet normal -6.242335e-02 -6.951236e-01 7.161749e-01
      outer loop
         vertex 1.401000e+00 -8.066000e-01 1.493900e+00
         vertex 1.824700e+00 -5.368000e-01 1.792700e+00
         vertex 1.399100e+00 -4.176000e-01 1.871300e+00
      endloop
   endfacet
   facet normal -9.999927e-01 -1.470417e-03 -3.518835e-03
      outer loop
         vertex 1.400000e+00 9.116000e-01 1.060100e+00
         vertex 1.401000e+00 -8.066000e-01 1.493900e+00
         vertex 1.399100e+00 -4.176000e-01 1.871300e+00
      endloop
   endfacet
   facet normal -6.953315e-04 1.305293e-03 9.999989e-01
      outer loop
         vertex 8.000000e-01 9.000000e-01 7.593000e-01
         vertex 1.670600e+00 9.041000e-01 7.599000e-01
         vertex 1.488400e+00 1.190100e+00 7.594000e-01
      endloop
   endfacet
   facet normal -6.814386e-04 1.272326e-03 9.999990e-01
      outer loop
         vertex 2.091000e-01 1.133700e+00 7.586000e-01
         vertex 8.000000e-01 9.000000e-01 7.593000e-01
         vertex 1.488400e+00 1.190100e+00 7.594000e-01
      endloop
   endfacet
   facet normal 8.770408e-05 3.217056e-03 9.999948e-01
      outer loop
         vertex 2.091000e-01 1.133700e+00 7.586000e-01
         vertex 1.104000e-01 9.188000e-01 7.593000e-01
         vertex 8.000000e-01 9.000000e-01 7.593000e-01
      endloop
   endfacet
   facet normal 4.311843e-04 -1.703226e-03 9.999985e-01
      outer loop
         vertex 8.000000e-01 9.000000e-01 7.593000e-01
         vertex 2.893000e-01 7.120000e-01 7.592000e-01
         vertex 6.495000e-01 3.922000e-01 7.585000e-01
      endloop
   endfacet
   facet normal -1.350141e-05 -4.952425e-04 9.999999e-01
      outer loop
         vertex 1.104000e-01 9.188000e-01 7.593000e-01
         vertex 2.893000e-01 7.120000e-01 7.592000e-01
         vertex 8.000000e-01 9.000000e-01 7.593000e-01
      endloop
   endfacet
   facet normal -6.621859e-03 3.871627e-04 9.999780e-01
      outer loop
         vertex 8.000000e-01 9.000000e-01 7.593000e-01
         vertex 6.495000e-01 3.922000e-01 7.585000e-01
         vertex 7.622000e-01 -4.800000e-03 7.594000e-01
      endloop
   endfacet
   facet normal -4.709379e-03 9.999889e-01 0.000000e+00
      outer loop
         vertex 8.000000e-01 9.000000e-01 7.593000e-01
         vertex 8.000000e-01 9.000000e-01 1.059300e+00
         vertex 1.670600e+00 9.041000e-01 7.599000e-01
      endloop
   endfacet
   facet normal -9.603251e-01 2.787243e-01 -9.407357e-03
      outer loop
         vertex 7.622000e-01 -4.800000e-03 7.594000e-01
         vertex 7.591000e-01 -3.910000e-02 5.960000e-02
         vertex 6.459000e-01 -4.055000e-01 7.595000e-01
      endloop
   endfacet
   facet normal -9.617488e-01 -2.730696e-01 -2.172862e-02
      outer loop
         vertex 6.495000e-01 3.922000e-01 7.585000e-01
         vertex 6.940000e-01 2.911000e-01 5.940000e-02
         vertex 7.622000e-01 -4.800000e-03 7.594000e-01
      endloop
   endfacet
   facet normal -9.810219e-01 -1.934034e-01 1.382519e-02
      outer loop
         vertex 7.622000e-01 -4.800000e-03 7.594000e-01
         vertex 6.940000e-01 2.911000e-01 5.940000e-02
         vertex 7.591000e-01 -3.910000e-02 5.960000e-02
      endloop
   endfacet
   facet normal -6.688922e-01 7.432937e-01 -9.888023e-03
      outer loop
         vertex 6.459000e-01 -4.055000e-01 7.595000e-01
         vertex 6.238000e-01 -4.347000e-01 5.950000e-02
         vertex 3.362000e-01 -6.842000e-01 7.595000e-01
      endloop
   endfacet
   facet normal -6.318173e-01 7.749391e-01 1.662377e-02
      outer loop
         vertex 3.362000e-01 -6.842000e-01 7.595000e-01
         vertex 6.238000e-01 -4.347000e-01 5.950000e-02
         vertex 3.016000e-01 -6.974000e-01 5.980000e-02
      endloop
   endfacet
   facet normal -9.460654e-01 3.235618e-01 1.637156e-02
      outer loop
         vertex 6.459000e-01 -4.055000e-01 7.595000e-01
         vertex 7.591000e-01 -3.910000e-02 5.960000e-02
         vertex 6.238000e-01 -4.347000e-01 5.950000e-02
      endloop
   endfacet
   facet normal -9.953603e-04 8.624922e-04 9.999991e-01
      outer loop
         vertex 8.000000e-01 -9.000000e-01 1.059300e+00
         vertex 1.095800e+00 -2.108000e-01 1.059000e+00
         vertex 9.041000e-01 -8.420000e-02 1.058700e+00
      endloop
   endfacet
   facet normal 5.763635e-03 -0.000000e+00 9.999834e-01
      outer loop
         vertex 8.000000e-01 -9.000000e-01 1.059300e+00
         vertex 9.041000e-01 -8.420000e-02 1.058700e+00
         vertex 8.000000e-01 9.000000e-01 1.059300e+00
      endloop
   endfacet
   facet normal -1.925606e-02 9.989188e-01 -4.231373e-02
      outer loop
         vertex 1.670600e+00 9.041000e-01 7.599000e-01
         vertex 8.000000e-01 9.000000e-01 1.059300e+00
         vertex 1.400000e+00 9.116000e-01 1.060100e+00
      endloop
   endfacet
   facet normal -1.287148e-03 -2.389154e-03 9.999963e-01
      outer loop
         vertex 8.000000e-01 9.000000e-01 1.059300e+00
         vertex 1.249800e+00 1.554000e-01 1.058100e+00
         vertex 1.400000e+00 9.116000e-01 1.060100e+00
      endloop
   endfacet
   facet normal 1.424072e-02 8.966839e-04 9.998982e-01
      outer loop
         vertex 9.041000e-01 -8.420000e-02 1.058700e+00
         vertex 9.655000e-01 1.673000e-01 1.057600e+00
         vertex 8.000000e-01 9.000000e-01 1.059300e+00
      endloop
   endfacet
   facet normal -1.873540e-03 -2.743380e-03 9.999945e-01
      outer loop
         vertex 8.000000e-01 9.000000e-01 1.059300e+00
         vertex 9.655000e-01 1.673000e-01 1.057600e+00
         vertex 1.249800e+00 1.554000e-01 1.058100e+00
      endloop
   endfacet
   facet normal 3.839897e-01 9.228638e-01 2.956871e-02
      outer loop
         vertex -1.209400e+00 -1.795000e-01 1.058200e+00
         vertex -1.066900e+00 -2.068000e-01 5.970000e-02
         vertex -1.274100e+00 -1.206000e-01 6.010000e-02
      endloop
   endfacet
   facet normal 9.095239e-01 4.142161e-01 -3.451447e-02
      outer loop
         vertex -1.274100e+00 -1.206000e-01 6.010000e-02
         vertex -1.307900e+00 3.680000e-02 1.058400e+00
         vertex -1.209400e+00 -1.795000e-01 1.058200e+00
      endloop
   endfacet
   facet normal 9.994412e-01 5.420839e-03 3.298385e-02
      outer loop
         vertex -1.275400e+00 1.203000e-01 5.990000e-02
         vertex -1.307900e+00 3.680000e-02 1.058400e+00
         vertex -1.274100e+00 -1.206000e-01 6.010000e-02
      endloop
   endfacet
   facet normal 1.710832e-03 -8.209773e-04 -9.999982e-01
      outer loop
         vertex -1.895800e+00 -1.981000e-01 5.910000e-02
         vertex -1.275400e+00 1.203000e-01 5.990000e-02
         vertex -1.274100e+00 -1.206000e-01 6.010000e-02
      endloop
   endfacet
   facet normal -4.679628e-02 -4.423028e-01 8.956441e-01
      outer loop
         vertex -1.399100e+00 -4.224000e-01 1.867500e+00
         vertex -1.887800e+00 -2.413000e-01 1.931400e+00
         vertex -1.820800e+00 -5.495000e-01 1.782700e+00
      endloop
   endfacet
   facet normal 6.286159e-02 -6.897930e-01 7.212725e-01
      outer loop
         vertex -1.399100e+00 -4.224000e-01 1.867500e+00
         vertex -1.820800e+00 -5.495000e-01 1.782700e+00
         vertex -1.399300e+00 -7.886000e-01 1.517300e+00
      endloop
   endfacet
   facet normal -9.772480e-01 -2.120988e-01 -7.182298e-04
      outer loop
         vertex -1.895800e+00 -1.981000e-01 5.910000e-02
         vertex -1.820800e+00 -5.495000e-01 1.782700e+00
         vertex -1.887800e+00 -2.413000e-01 1.931400e+00
      endloop
   endfacet
   facet normal -9.993447e-01 3.536664e-02 -7.700600e-03
      outer loop
         vertex -1.895800e+00 -1.981000e-01 5.910000e-02
         vertex -1.900300e+00 8.890000e-02 1.961200e+00
         vertex -1.876800e+00 3.388000e-01 5.920000e-02
      endloop
   endfacet
   facet normal -9.992669e-01 -3.813395e-02 3.389784e-03
      outer loop
         vertex -1.887800e+00 -2.413000e-01 1.931400e+00
         vertex -1.900300e+00 8.890000e-02 1.961200e+00
         vertex -1.895800e+00 -1.981000e-01 5.910000e-02
      endloop
   endfacet
   facet normal 1.215989e-03 1.432238e-04 -9.999993e-01
      outer loop
         vertex -1.876800e+00 3.388000e-01 5.920000e-02
         vertex -1.275400e+00 1.203000e-01 5.990000e-02
         vertex -1.895800e+00 -1.981000e-01 5.910000e-02
      endloop
   endfacet
   facet normal 7.584292e-01 -6.510756e-01 -2.976058e-02
      outer loop
         vertex -1.275400e+00 1.203000e-01 5.990000e-02
         vertex -1.176100e+00 1.903000e-01 1.059100e+00
         vertex -1.307900e+00 3.680000e-02 1.058400e+00
      endloop
   endfacet
   facet normal -1.247759e-03 1.598099e-03 -9.999979e-01
      outer loop
         vertex -5.480000e-01 5.260000e-01 5.960000e-02
         vertex -8.717000e-01 1.399600e+00 6.140000e-02
         vertex -2.124000e-01 1.100900e+00 6.010000e-02
      endloop
   endfacet
   facet normal -1.817004e-03 1.930397e-03 -9.999965e-01
      outer loop
         vertex -2.124000e-01 1.100900e+00 6.010000e-02
         vertex -8.670000e-02 9.084000e-01 5.950000e-02
         vertex -5.480000e-01 5.260000e-01 5.960000e-02
      endloop
   endfacet
   facet normal -1.182752e-03 1.622187e-03 -9.999980e-01
      outer loop
         vertex -5.480000e-01 5.260000e-01 5.960000e-02
         vertex -9.352000e-01 1.204000e-01 5.940000e-02
         vertex -8.717000e-01 1.399600e+00 6.140000e-02
      endloop
   endfacet
   facet normal -3.100435e-04 1.125061e-04 -9.999999e-01
      outer loop
         vertex -8.670000e-02 9.084000e-01 5.950000e-02
         vertex -1.428000e-01 7.538000e-01 5.950000e-02
         vertex -5.480000e-01 5.260000e-01 5.960000e-02
      endloop
   endfacet
   facet normal 4.897896e-01 -8.712001e-01 3.341448e-02
      outer loop
         vertex -2.341000e-01 7.293000e-01 7.590000e-01
         vertex -5.480000e-01 5.260000e-01 5.960000e-02
         vertex -1.428000e-01 7.538000e-01 5.950000e-02
      endloop
   endfacet
   facet normal -3.299461e-02 -9.986831e-01 -3.928534e-02
      outer loop
         vertex -2.341000e-01 7.293000e-01 7.590000e-01
         vertex -1.428000e-01 7.538000e-01 5.950000e-02
         vertex 2.893000e-01 7.120000e-01 7.592000e-01
      endloop
   endfacet
   facet normal -4.098213e-04 -8.380935e-04 9.999996e-01
      outer loop
         vertex -2.341000e-01 7.293000e-01 7.590000e-01
         vertex 2.893000e-01 7.120000e-01 7.592000e-01
         vertex 1.104000e-01 9.188000e-01 7.593000e-01
      endloop
   endfacet
   facet normal -5.251857e-01 -8.508679e-01 1.427435e-02
      outer loop
         vertex -1.018200e+00 1.884000e-01 1.059000e+00
         vertex -1.072900e+00 2.054000e-01 5.980000e-02
         vertex -9.352000e-01 1.204000e-01 5.940000e-02
      endloop
   endfacet
   facet normal -1.882074e-03 1.656900e-03 -9.999969e-01
      outer loop
         vertex -9.352000e-01 1.204000e-01 5.940000e-02
         vertex -1.072900e+00 2.054000e-01 5.980000e-02
         vertex -8.717000e-01 1.399600e+00 6.140000e-02
      endloop
   endfacet
   facet normal 7.730712e-01 8.461619e-02 -6.286501e-01
      outer loop
         vertex -8.717000e-01 1.399600e+00 6.140000e-02
         vertex -6.181000e-01 1.799600e+00 4.271000e-01
         vertex -4.916000e-01 1.398700e+00 5.287000e-01
      endloop
   endfacet
   facet normal 8.327684e-01 -2.223519e-02 -5.531748e-01
      outer loop
         vertex -8.717000e-01 1.399600e+00 6.140000e-02
         vertex -8.628000e-01 1.698100e+00 6.280000e-02
         vertex -6.181000e-01 1.799600e+00 4.271000e-01
      endloop
   endfacet
   facet normal 5.214520e-01 -5.131640e-02 -8.517361e-01
      outer loop
         vertex -6.181000e-01 1.799600e+00 4.271000e-01
         vertex -3.214000e-01 1.873400e+00 6.043000e-01
         vertex -4.916000e-01 1.398700e+00 5.287000e-01
      endloop
   endfacet
   facet normal 4.526785e-03 4.555037e-03 -9.999794e-01
      outer loop
         vertex -1.327600e+00 1.369700e+00 5.920000e-02
         vertex -8.628000e-01 1.698100e+00 6.280000e-02
         vertex -8.717000e-01 1.399600e+00 6.140000e-02
      endloop
   endfacet
   facet normal 2.539365e-01 6.266748e-02 -9.651886e-01
      outer loop
         vertex -4.916000e-01 1.398700e+00 5.287000e-01
         vertex -3.214000e-01 1.873400e+00 6.043000e-01
         vertex 7.200000e-02 1.399000e+00 6.770000e-01
      endloop
   endfacet
   facet normal 1.262896e-01 -4.712087e-02 -9.908736e-01
      outer loop
         vertex 7.200000e-02 1.399000e+00 6.770000e-01
         vertex -3.214000e-01 1.873400e+00 6.043000e-01
         vertex 1.659000e-01 1.900900e+00 6.651000e-01
      endloop
   endfacet
   facet normal 4.943533e-03 -1.798822e-03 -9.999862e-01
      outer loop
         vertex -8.717000e-01 1.399600e+00 6.140000e-02
         vertex -1.678600e+00 9.054000e-01 5.830000e-02
         vertex -1.327600e+00 1.369700e+00 5.920000e-02
      endloop
   endfacet
   facet normal 6.127351e-03 -3.731763e-03 -9.999743e-01
      outer loop
         vertex -8.717000e-01 1.399600e+00 6.140000e-02
         vertex -1.876800e+00 3.388000e-01 5.920000e-02
         vertex -1.678600e+00 9.054000e-01 5.830000e-02
      endloop
   endfacet
   facet normal -9.438592e-01 3.301493e-01 -1.145523e-02
      outer loop
         vertex -1.876800e+00 3.388000e-01 5.920000e-02
         vertex -1.767500e+00 7.059000e-01 1.633500e+00
         vertex -1.678600e+00 9.054000e-01 5.830000e-02
      endloop
   endfacet
   facet normal 7.098292e-02 6.911903e-01 7.191783e-01
      outer loop
         vertex -1.402000e+00 8.029000e-01 1.504200e+00
         vertex -1.767500e+00 7.059000e-01 1.633500e+00
         vertex -1.399500e+00 4.238000e-01 1.868300e+00
      endloop
   endfacet
   facet normal -9.577941e-01 2.874547e-01 -5.321127e-04
      outer loop
         vertex -1.876800e+00 3.388000e-01 5.920000e-02
         vertex -1.859800e+00 3.988000e-01 1.872300e+00
         vertex -1.767500e+00 7.059000e-01 1.633500e+00
      endloop
   endfacet
   facet normal -2.677588e-02 6.186344e-01 7.852226e-01
      outer loop
         vertex -1.399500e+00 4.238000e-01 1.868300e+00
         vertex -1.767500e+00 7.059000e-01 1.633500e+00
         vertex -1.859800e+00 3.988000e-01 1.872300e+00
      endloop
   endfacet
   facet normal 9.739656e-02 -9.948831e-01 2.686280e-02
      outer loop
         vertex -7.060001e-02 1.291500e+00 7.591000e-01
         vertex -1.146000e-01 1.268300e+00 5.940000e-02
         vertex 1.035000e-01 1.289700e+00 6.120000e-02
      endloop
   endfacet
   facet normal -4.762828e-03 -9.999877e-01 1.391006e-03
      outer loop
         vertex -7.060001e-02 1.291500e+00 7.591000e-01
         vertex 1.035000e-01 1.289700e+00 6.120000e-02
         vertex 7.640000e-02 1.290800e+00 7.592000e-01
      endloop
   endfacet
   facet normal -7.636801e-01 -6.449596e-01 -2.863363e-02
      outer loop
         vertex 7.640000e-02 1.290800e+00 7.592000e-01
         vertex 1.035000e-01 1.289700e+00 6.120000e-02
         vertex 2.091000e-01 1.133700e+00 7.586000e-01
      endloop
   endfacet
   facet normal 1.306191e-03 -2.715915e-03 9.999955e-01
      outer loop
         vertex 6.546000e-01 1.789800e+00 7.598000e-01
         vertex 7.640000e-02 1.290800e+00 7.592000e-01
         vertex 2.091000e-01 1.133700e+00 7.586000e-01
      endloop
   endfacet
   facet normal -4.700019e-01 -2.003304e-02 -8.824380e-01
      outer loop
         vertex 6.165000e-01 1.799700e+00 4.274000e-01
         vertex 6.095000e-01 1.400100e+00 4.402000e-01
         vertex 1.659000e-01 1.900900e+00 6.651000e-01
      endloop
   endfacet
   facet normal -4.026773e-01 5.367123e-02 -9.137671e-01
      outer loop
         vertex 7.200000e-02 1.399000e+00 6.770000e-01
         vertex 1.659000e-01 1.900900e+00 6.651000e-01
         vertex 6.095000e-01 1.400100e+00 4.402000e-01
      endloop
   endfacet
   facet normal 2.209953e-01 9.752678e-01 3.715980e-03
      outer loop
         vertex 6.165000e-01 1.799700e+00 4.274000e-01
         vertex 1.659000e-01 1.900900e+00 6.651000e-01
         vertex 6.546000e-01 1.789800e+00 7.598000e-01
      endloop
   endfacet
   facet normal 4.718663e-01 8.812274e-01 2.793771e-02
      outer loop
         vertex 1.126900e+00 1.536900e+00 7.598000e-01
         vertex 8.653000e-01 1.699100e+00 6.200000e-02
         vertex 6.546000e-01 1.789800e+00 7.598000e-01
      endloop
   endfacet
   facet normal 3.580572e-01 9.336059e-01 -1.323501e-02
      outer loop
         vertex 8.653000e-01 1.699100e+00 6.200000e-02
         vertex 6.165000e-01 1.799700e+00 4.274000e-01
         vertex 6.546000e-01 1.789800e+00 7.598000e-01
      endloop
   endfacet
   facet normal -7.182276e-04 -1.341316e-03 9.999988e-01
      outer loop
         vertex 6.546000e-01 1.789800e+00 7.598000e-01
         vertex 2.091000e-01 1.133700e+00 7.586000e-01
         vertex 1.126900e+00 1.536900e+00 7.598000e-01
      endloop
   endfacet
   facet normal -3.057083e-03 -2.395520e-03 -9.999925e-01
      outer loop
         vertex -8.717000e-01 1.399600e+00 6.140000e-02
         vertex -1.146000e-01 1.268300e+00 5.940000e-02
         vertex -2.124000e-01 1.100900e+00 6.010000e-02
      endloop
   endfacet
   facet normal 4.312864e-03 4.008869e-02 -9.991868e-01
      outer loop
         vertex 1.035000e-01 1.289700e+00 6.120000e-02
         vertex -1.146000e-01 1.268300e+00 5.940000e-02
         vertex -8.717000e-01 1.399600e+00 6.140000e-02
      endloop
   endfacet
   facet normal -6.011271e-04 2.181321e-04 -9.999998e-01
      outer loop
         vertex -8.670000e-02 9.084000e-01 5.950000e-02
         vertex 8.150000e-02 9.135000e-01 5.940000e-02
         vertex -1.428000e-01 7.538000e-01 5.950000e-02
      endloop
   endfacet
   facet normal -3.031015e-02 9.995206e-01 -6.317383e-03
      outer loop
         vertex 1.104000e-01 9.188000e-01 7.593000e-01
         vertex 8.150000e-02 9.135000e-01 5.940000e-02
         vertex -8.670000e-02 9.084000e-01 5.950000e-02
      endloop
   endfacet
   facet normal -9.079075e-01 4.168432e-01 -4.411119e-02
      outer loop
         vertex 2.091000e-01 1.133700e+00 7.586000e-01
         vertex 2.055000e-01 1.051900e+00 5.970000e-02
         vertex 1.104000e-01 9.188000e-01 7.593000e-01
      endloop
   endfacet
   facet normal -7.445726e-01 6.670468e-01 2.569334e-02
      outer loop
         vertex 1.104000e-01 9.188000e-01 7.593000e-01
         vertex 2.055000e-01 1.051900e+00 5.970000e-02
         vertex 8.150000e-02 9.135000e-01 5.940000e-02
      endloop
   endfacet
   facet normal 3.873052e-01 -9.215828e-01 2.607222e-02
      outer loop
         vertex -1.176100e+00 1.903000e-01 1.059100e+00
         vertex -1.275400e+00 1.203000e-01 5.990000e-02
         vertex -1.072900e+00 2.054000e-01 5.980000e-02
      endloop
   endfacet
   facet normal -1.204080e-02 -9.997938e-01 -1.635096e-02
      outer loop
         vertex -1.176100e+00 1.903000e-01 1.059100e+00
         vertex -1.072900e+00 2.054000e-01 5.980000e-02
         vertex -1.018200e+00 1.884000e-01 1.059000e+00
      endloop
   endfacet
   facet normal 4.319180e-02 -2.267609e-01 9.729923e-01
      outer loop
         vertex -1.399700e+00 -3.300000e-03 1.965200e+00
         vertex -1.887800e+00 -2.413000e-01 1.931400e+00
         vertex -1.399100e+00 -4.224000e-01 1.867500e+00
      endloop
   endfacet
   facet normal -2.467520e-02 -9.078217e-02 9.955650e-01
      outer loop
         vertex -1.399700e+00 -3.300000e-03 1.965200e+00
         vertex -1.900300e+00 8.890000e-02 1.961200e+00
         vertex -1.887800e+00 -2.413000e-01 1.931400e+00
      endloop
   endfacet
   facet normal 3.293766e-02 2.211213e-01 9.746899e-01
      outer loop
         vertex -1.399500e+00 4.238000e-01 1.868300e+00
         vertex -1.900300e+00 8.890000e-02 1.961200e+00
         vertex -1.399700e+00 -3.300000e-03 1.965200e+00
      endloop
   endfacet
   facet normal -6.668818e-03 2.765441e-01 9.609781e-01
      outer loop
         vertex -1.399500e+00 4.238000e-01 1.868300e+00
         vertex -1.859800e+00 3.988000e-01 1.872300e+00
         vertex -1.900300e+00 8.890000e-02 1.961200e+00
      endloop
   endfacet
   facet normal -5.111382e-01 8.593760e-01 -1.451217e-02
      outer loop
         vertex 1.290500e+00 -9.500000e-02 1.058800e+00
         vertex 1.130900e+00 -2.068000e-01 5.960000e-02
         vertex 1.095800e+00 -2.108000e-01 1.059000e+00
      endloop
   endfacet
   facet normal -6.482301e-01 7.612230e-01 1.836752e-02
      outer loop
         vertex 1.290500e+00 -9.500000e-02 1.058800e+00
         vertex 1.303300e+00 -6.000000e-02 6.000000e-02
         vertex 1.130900e+00 -2.068000e-01 5.960000e-02
      endloop
   endfacet
   facet normal -1.162339e-03 3.025109e-03 -9.999947e-01
      outer loop
         vertex 9.256000e-01 -1.204000e-01 6.010000e-02
         vertex 1.130900e+00 -2.068000e-01 5.960000e-02
         vertex 6.238000e-01 -4.347000e-01 5.950000e-02
      endloop
   endfacet
   facet normal 3.878741e-01 9.215498e-01 1.731098e-02
      outer loop
         vertex 1.095800e+00 -2.108000e-01 1.059000e+00
         vertex 1.130900e+00 -2.068000e-01 5.960000e-02
         vertex 9.256000e-01 -1.204000e-01 6.010000e-02
      endloop
   endfacet
   facet normal -9.868736e-01 -1.604577e-01 -1.826991e-02
      outer loop
         vertex 1.249800e+00 1.554000e-01 1.058100e+00
         vertex 1.303300e+00 -6.000000e-02 6.000000e-02
         vertex 1.290500e+00 -9.500000e-02 1.058800e+00
      endloop
   endfacet
   facet normal -9.736747e-01 -2.279222e-01 -3.002916e-03
      outer loop
         vertex 1.249800e+00 1.554000e-01 1.058100e+00
         vertex 1.259200e+00 1.284000e-01 5.950000e-02
         vertex 1.303300e+00 -6.000000e-02 6.000000e-02
      endloop
   endfacet
   facet normal -1.228570e-03 -2.400929e-04 -9.999992e-01
      outer loop
         vertex 1.303300e+00 -6.000000e-02 6.000000e-02
         vertex 1.873400e+00 3.548000e-01 5.920000e-02
         vertex 1.898100e+00 -1.881000e-01 5.930000e-02
      endloop
   endfacet
   facet normal 4.509175e-04 -2.548371e-03 -9.999967e-01
      outer loop
         vertex 1.873400e+00 3.548000e-01 5.920000e-02
         vertex 1.303300e+00 -6.000000e-02 6.000000e-02
         vertex 1.259200e+00 1.284000e-01 5.950000e-02
      endloop
   endfacet
   facet normal 2.679024e-03 -6.634776e-04 -9.999962e-01
      outer loop
         vertex 7.591000e-01 -3.910000e-02 5.960000e-02
         vertex 9.256000e-01 -1.204000e-01 6.010000e-02
         vertex 6.238000e-01 -4.347000e-01 5.950000e-02
      endloop
   endfacet
   facet normal 5.953645e-02 -3.926059e-01 9.177778e-01
      outer loop
         vertex 1.399100e+00 -4.176000e-01 1.871300e+00
         vertex 1.824700e+00 -5.368000e-01 1.792700e+00
         vertex 1.901700e+00 -1.338000e-01 1.960100e+00
      endloop
   endfacet
   facet normal 9.819533e-01 -1.890902e-01 3.541950e-03
      outer loop
         vertex 1.898100e+00 -1.881000e-01 5.930000e-02
         vertex 1.901700e+00 -1.338000e-01 1.960100e+00
         vertex 1.824700e+00 -5.368000e-01 1.792700e+00
      endloop
   endfacet
   facet normal 9.989567e-01 4.544825e-02 -4.473657e-03
      outer loop
         vertex 1.873400e+00 3.548000e-01 5.920000e-02
         vertex 1.886300e+00 2.551000e-01 1.926900e+00
         vertex 1.898100e+00 -1.881000e-01 5.930000e-02
      endloop
   endfacet
   facet normal 9.992225e-01 3.931066e-02 -3.015466e-03
      outer loop
         vertex 1.898100e+00 -1.881000e-01 5.930000e-02
         vertex 1.886300e+00 2.551000e-01 1.926900e+00
         vertex 1.901700e+00 -1.338000e-01 1.960100e+00
      endloop
   endfacet
   facet normal -1.506169e-02 3.471004e-04 9.998865e-01
      outer loop
         vertex 1.249800e+00 1.554000e-01 1.058100e+00
         vertex 1.290500e+00 -9.500000e-02 1.058800e+00
         vertex 1.400000e+00 9.116000e-01 1.060100e+00
      endloop
   endfacet
   facet normal 5.510057e-01 8.342990e-01 -1.838074e-02
      outer loop
         vertex 1.095800e+00 -2.108000e-01 1.059000e+00
         vertex 9.256000e-01 -1.204000e-01 6.010000e-02
         vertex 9.041000e-01 -8.420000e-02 1.058700e+00
      endloop
   endfacet
   facet normal -9.999984e-01 1.382093e-03 1.155169e-03
      outer loop
         vertex 1.400000e+00 9.116000e-01 1.060100e+00
         vertex 1.399100e+00 -4.176000e-01 1.871300e+00
         vertex 1.399800e+00 1.090000e-02 1.964600e+00
      endloop
   endfacet
   facet normal 1.762188e-01 9.751213e-01 1.344818e-01
      outer loop
         vertex 1.400000e+00 9.116000e-01 1.060100e+00
         vertex 1.730400e+00 7.899000e-01 1.509600e+00
         vertex 1.670600e+00 9.041000e-01 7.599000e-01
      endloop
   endfacet
   facet normal 2.008202e-03 9.656172e-01 2.599602e-01
      outer loop
         vertex 1.399400e+00 7.890000e-01 1.515500e+00
         vertex 1.730400e+00 7.899000e-01 1.509600e+00
         vertex 1.400000e+00 9.116000e-01 1.060100e+00
      endloop
   endfacet
   facet normal -9.999974e-01 -1.508994e-03 -1.723772e-03
      outer loop
         vertex 1.399800e+00 1.090000e-02 1.964600e+00
         vertex 1.399400e+00 7.890000e-01 1.515500e+00
         vertex 1.400000e+00 9.116000e-01 1.060100e+00
      endloop
   endfacet
   facet normal -5.248003e-02 -2.123765e-01 9.757777e-01
      outer loop
         vertex 1.399100e+00 -4.176000e-01 1.871300e+00
         vertex 1.901700e+00 -1.338000e-01 1.960100e+00
         vertex 1.399800e+00 1.090000e-02 1.964600e+00
      endloop
   endfacet
   facet normal 8.433738e-01 5.372929e-01 6.089818e-03
      outer loop
         vertex 1.670600e+00 9.041000e-01 7.599000e-01
         vertex 1.686500e+00 8.871000e-01 5.780000e-02
         vertex 1.488400e+00 1.190100e+00 7.594000e-01
      endloop
   endfacet
   facet normal 8.649690e-01 5.017701e-01 7.438987e-03
      outer loop
         vertex 1.686500e+00 8.871000e-01 5.780000e-02
         vertex 1.670600e+00 9.041000e-01 7.599000e-01
         vertex 1.730400e+00 7.899000e-01 1.509600e+00
      endloop
   endfacet
   facet normal 6.920911e-01 7.213992e-01 2.435350e-02
      outer loop
         vertex 1.488400e+00 1.190100e+00 7.594000e-01
         vertex 1.354300e+00 1.342400e+00 5.890000e-02
         vertex 1.126900e+00 1.536900e+00 7.598000e-01
      endloop
   endfacet
   facet normal 8.075161e-01 5.892511e-01 -2.647399e-02
      outer loop
         vertex 1.488400e+00 1.190100e+00 7.594000e-01
         vertex 1.686500e+00 8.871000e-01 5.780000e-02
         vertex 1.354300e+00 1.342400e+00 5.890000e-02
      endloop
   endfacet
   facet normal -5.492546e-04 -1.725946e-03 9.999984e-01
      outer loop
         vertex 1.126900e+00 1.536900e+00 7.598000e-01
         vertex 2.091000e-01 1.133700e+00 7.586000e-01
         vertex 1.488400e+00 1.190100e+00 7.594000e-01
      endloop
   endfacet
   facet normal -9.177206e-01 -3.939601e-01 5.083669e-02
      outer loop
         vertex 2.091000e-01 1.133700e+00 7.586000e-01
         vertex 1.035000e-01 1.289700e+00 6.120000e-02
         vertex 2.055000e-01 1.051900e+00 5.970000e-02
      endloop
   endfacet
   facet normal -6.631852e-01 -7.468577e-01 -4.887675e-02
      outer loop
         vertex 2.893000e-01 7.120000e-01 7.592000e-01
         vertex 5.286000e-01 5.453000e-01 5.950000e-02
         vertex 6.495000e-01 3.922000e-01 7.585000e-01
      endloop
   endfacet
   facet normal -5.063669e-01 -8.617197e-01 3.212096e-02
      outer loop
         vertex 2.893000e-01 7.120000e-01 7.592000e-01
         vertex 2.461000e-01 7.113000e-01 5.940000e-02
         vertex 5.286000e-01 5.453000e-01 5.950000e-02
      endloop
   endfacet
   facet normal -1.086306e-01 -9.940524e-01 7.700315e-03
      outer loop
         vertex 2.893000e-01 7.120000e-01 7.592000e-01
         vertex -1.428000e-01 7.538000e-01 5.950000e-02
         vertex 2.461000e-01 7.113000e-01 5.940000e-02
      endloop
   endfacet
   facet normal -8.379101e-01 -5.452118e-01 2.550983e-02
      outer loop
         vertex 6.495000e-01 3.922000e-01 7.585000e-01
         vertex 5.286000e-01 5.453000e-01 5.950000e-02
         vertex 6.940000e-01 2.911000e-01 5.940000e-02
      endloop
   endfacet
   facet normal 2.990520e-03 -2.553941e-05 -9.999955e-01
      outer loop
         vertex 7.591000e-01 -3.910000e-02 5.960000e-02
         vertex 9.277000e-01 1.255000e-01 6.010000e-02
         vertex 9.256000e-01 -1.204000e-01 6.010000e-02
      endloop
   endfacet
   facet normal 2.982787e-03 -1.761805e-05 -9.999956e-01
      outer loop
         vertex 6.940000e-01 2.911000e-01 5.940000e-02
         vertex 9.277000e-01 1.255000e-01 6.010000e-02
         vertex 7.591000e-01 -3.910000e-02 5.960000e-02
      endloop
   endfacet
   facet normal 6.074828e-03 4.346069e-03 -9.999721e-01
      outer loop
         vertex 9.277000e-01 1.255000e-01 6.010000e-02
         vertex 6.940000e-01 2.911000e-01 5.940000e-02
         vertex 5.286000e-01 5.453000e-01 5.950000e-02
      endloop
   endfacet
   facet normal 9.997252e-01 -8.537775e-03 2.183371e-02
      outer loop
         vertex 9.277000e-01 1.255000e-01 6.010000e-02
         vertex 9.041000e-01 -8.420000e-02 1.058700e+00
         vertex 9.256000e-01 -1.204000e-01 6.010000e-02
      endloop
   endfacet
   facet normal 9.710907e-01 -2.371949e-01 -2.685963e-02
      outer loop
         vertex 9.277000e-01 1.255000e-01 6.010000e-02
         vertex 9.655000e-01 1.673000e-01 1.057600e+00
         vertex 9.041000e-01 -8.420000e-02 1.058700e+00
      endloop
   endfacet
   facet normal -5.051762e-01 -8.628164e-01 1.857335e-02
      outer loop
         vertex 1.249800e+00 1.554000e-01 1.058100e+00
         vertex 1.131100e+00 2.034000e-01 5.940000e-02
         vertex 1.259200e+00 1.284000e-01 5.950000e-02
      endloop
   endfacet
   facet normal -4.170630e-02 -9.982034e-01 -4.301915e-02
      outer loop
         vertex 9.655000e-01 1.673000e-01 1.057600e+00
         vertex 1.131100e+00 2.034000e-01 5.940000e-02
         vertex 1.249800e+00 1.554000e-01 1.058100e+00
      endloop
   endfacet
   facet normal 3.576157e-01 -9.335188e-01 2.556713e-02
      outer loop
         vertex 9.655000e-01 1.673000e-01 1.057600e+00
         vertex 9.277000e-01 1.255000e-01 6.010000e-02
         vertex 1.131100e+00 2.034000e-01 5.940000e-02
      endloop
   endfacet
   facet normal 1.426411e-03 7.223923e-04 -9.999987e-01
      outer loop
         vertex -8.717000e-01 1.399600e+00 6.140000e-02
         vertex -1.275400e+00 1.203000e-01 5.990000e-02
         vertex -1.876800e+00 3.388000e-01 5.920000e-02
      endloop
   endfacet
   facet normal -1.137413e-03 1.531440e-03 -9.999982e-01
      outer loop
         vertex -8.717000e-01 1.399600e+00 6.140000e-02
         vertex -1.072900e+00 2.054000e-01 5.980000e-02
         vertex -1.275400e+00 1.203000e-01 5.990000e-02
      endloop
   endfacet
   facet normal -9.913722e-01 1.309831e-01 4.960759e-03
      outer loop
         vertex -1.876800e+00 3.388000e-01 5.920000e-02
         vertex -1.900300e+00 8.890000e-02 1.961200e+00
         vertex -1.859800e+00 3.988000e-01 1.872300e+00
      endloop
   endfacet
   facet normal -9.825239e-04 -6.898647e-03 -9.999757e-01
      outer loop
         vertex 1.035000e-01 1.289700e+00 6.120000e-02
         vertex -8.717000e-01 1.399600e+00 6.140000e-02
         vertex 8.592000e-01 1.399500e+00 5.970000e-02
      endloop
   endfacet
   facet normal -1.321676e-03 9.999946e-01 3.000759e-03
      outer loop
         vertex -8.717000e-01 1.399600e+00 6.140000e-02
         vertex -4.916000e-01 1.398700e+00 5.287000e-01
         vertex 7.200000e-02 1.399000e+00 6.770000e-01
      endloop
   endfacet
   facet normal 5.626131e-05 9.999988e-01 -1.539962e-03
      outer loop
         vertex -8.717000e-01 1.399600e+00 6.140000e-02
         vertex 6.095000e-01 1.400100e+00 4.402000e-01
         vertex 8.592000e-01 1.399500e+00 5.970000e-02
      endloop
   endfacet
   facet normal -9.652371e-04 9.999965e-01 2.454348e-03
      outer loop
         vertex -8.717000e-01 1.399600e+00 6.140000e-02
         vertex 7.200000e-02 1.399000e+00 6.770000e-01
         vertex 6.095000e-01 1.400100e+00 4.402000e-01
      endloop
   endfacet
   facet normal -2.822361e-04 -2.297531e-04 -9.999999e-01
      outer loop
         vertex 8.150000e-02 9.135000e-01 5.940000e-02
         vertex 2.461000e-01 7.113000e-01 5.940000e-02
         vertex -1.428000e-01 7.538000e-01 5.950000e-02
      endloop
   endfacet
   facet normal -2.731154e-03 5.136237e-03 -9.999831e-01
      outer loop
         vertex 8.592000e-01 1.399500e+00 5.970000e-02
         vertex 2.055000e-01 1.051900e+00 5.970000e-02
         vertex 1.035000e-01 1.289700e+00 6.120000e-02
      endloop
   endfacet
   facet normal -8.270267e-01 -3.519430e-03 -5.621517e-01
      outer loop
         vertex 8.653000e-01 1.699100e+00 6.200000e-02
         vertex 6.095000e-01 1.400100e+00 4.402000e-01
         vertex 6.165000e-01 1.799700e+00 4.274000e-01
      endloop
   endfacet
   facet normal -8.358472e-01 2.122939e-02 -5.485514e-01
      outer loop
         vertex 8.653000e-01 1.699100e+00 6.200000e-02
         vertex 8.592000e-01 1.399500e+00 5.970000e-02
         vertex 6.095000e-01 1.400100e+00 4.402000e-01
      endloop
   endfacet
   facet normal 5.888619e-01 8.075578e-01 -3.304718e-02
      outer loop
         vertex 1.126900e+00 1.536900e+00 7.598000e-01
         vertex 1.354300e+00 1.342400e+00 5.890000e-02
         vertex 8.653000e-01 1.699100e+00 6.200000e-02
      endloop
   endfacet
   facet normal -7.287219e-04 7.691506e-03 -9.999702e-01
      outer loop
         vertex 8.592000e-01 1.399500e+00 5.970000e-02
         vertex 8.653000e-01 1.699100e+00 6.200000e-02
         vertex 1.354300e+00 1.342400e+00 5.890000e-02
      endloop
   endfacet
   facet normal 1.155888e-03 1.131995e-03 -9.999987e-01
      outer loop
         vertex 5.286000e-01 5.453000e-01 5.950000e-02
         vertex 8.150000e-02 9.135000e-01 5.940000e-02
         vertex 2.055000e-01 1.051900e+00 5.970000e-02
      endloop
   endfacet
   facet normal 6.785516e-04 5.523720e-04 -9.999996e-01
      outer loop
         vertex 5.286000e-01 5.453000e-01 5.950000e-02
         vertex 2.461000e-01 7.113000e-01 5.940000e-02
         vertex 8.150000e-02 9.135000e-01 5.940000e-02
      endloop
   endfacet
   facet normal -1.678487e-04 3.156581e-04 -9.999999e-01
      outer loop
         vertex 1.873400e+00 3.548000e-01 5.920000e-02
         vertex 2.055000e-01 1.051900e+00 5.970000e-02
         vertex 8.592000e-01 1.399500e+00 5.970000e-02
      endloop
   endfacet
   facet normal -4.000255e-04 -2.398542e-04 -9.999999e-01
      outer loop
         vertex 1.259200e+00 1.284000e-01 5.950000e-02
         vertex 2.055000e-01 1.051900e+00 5.970000e-02
         vertex 1.873400e+00 3.548000e-01 5.920000e-02
      endloop
   endfacet
   facet normal 2.733348e-03 3.335278e-03 -9.999907e-01
      outer loop
         vertex 1.259200e+00 1.284000e-01 5.950000e-02
         vertex 1.131100e+00 2.034000e-01 5.940000e-02
         vertex 2.055000e-01 1.051900e+00 5.970000e-02
      endloop
   endfacet
   facet normal -2.522852e-03 -2.398533e-03 -9.999939e-01
      outer loop
         vertex 2.055000e-01 1.051900e+00 5.970000e-02
         vertex 1.131100e+00 2.034000e-01 5.940000e-02
         vertex 9.277000e-01 1.255000e-01 6.010000e-02
      endloop
   endfacet
   facet normal 5.829162e-03 4.112513e-03 -9.999746e-01
      outer loop
         vertex 9.277000e-01 1.255000e-01 6.010000e-02
         vertex 5.286000e-01 5.453000e-01 5.950000e-02
         vertex 2.055000e-01 1.051900e+00 5.970000e-02
      endloop
   endfacet
   facet normal -5.016453e-03 -4.391402e-03 -9.999778e-01
      outer loop
         vertex 1.686500e+00 8.871000e-01 5.780000e-02
         vertex 1.873400e+00 3.548000e-01 5.920000e-02
         vertex 8.592000e-01 1.399500e+00 5.970000e-02
      endloop
   endfacet
   facet normal 9.435004e-01 3.312567e-01 -8.720051e-03
      outer loop
         vertex 1.686500e+00 8.871000e-01 5.780000e-02
         vertex 1.820000e+00 5.522000e-01 1.780200e+00
         vertex 1.873400e+00 3.548000e-01 5.920000e-02
      endloop
   endfacet
   facet normal 9.754519e-01 2.201554e-01 5.014759e-03
      outer loop
         vertex 1.873400e+00 3.548000e-01 5.920000e-02
         vertex 1.820000e+00 5.522000e-01 1.780200e+00
         vertex 1.886300e+00 2.551000e-01 1.926900e+00
      endloop
   endfacet
   facet normal 3.381984e-02 8.634016e-02 9.956915e-01
      outer loop
         vertex 1.399800e+00 1.090000e-02 1.964600e+00
         vertex 1.901700e+00 -1.338000e-01 1.960100e+00
         vertex 1.886300e+00 2.551000e-01 1.926900e+00
      endloop
   endfacet
   facet normal 4.571265e-02 4.504614e-01 8.916249e-01
      outer loop
         vertex 1.398900e+00 4.255000e-01 1.865800e+00
         vertex 1.886300e+00 2.551000e-01 1.926900e+00
         vertex 1.820000e+00 5.522000e-01 1.780200e+00
      endloop
   endfacet
   facet normal -4.089855e-02 2.315330e-01 9.719670e-01
      outer loop
         vertex 1.399800e+00 1.090000e-02 1.964600e+00
         vertex 1.886300e+00 2.551000e-01 1.926900e+00
         vertex 1.398900e+00 4.255000e-01 1.865800e+00
      endloop
   endfacet
   facet normal -9.999825e-01 -3.335275e-03 -4.887957e-03
      outer loop
         vertex 1.399800e+00 1.090000e-02 1.964600e+00
         vertex 1.398900e+00 4.255000e-01 1.865800e+00
         vertex 1.399400e+00 7.890000e-01 1.515500e+00
      endloop
   endfacet
   facet normal 9.376108e-01 3.476496e-01 -5.076160e-03
      outer loop
         vertex 1.730400e+00 7.899000e-01 1.509600e+00
         vertex 1.820000e+00 5.522000e-01 1.780200e+00
         vertex 1.686500e+00 8.871000e-01 5.780000e-02
      endloop
   endfacet
   facet normal 9.683786e-03 7.528551e-01 6.581151e-01
      outer loop
         vertex 1.399400e+00 7.890000e-01 1.515500e+00
         vertex 1.820000e+00 5.522000e-01 1.780200e+00
         vertex 1.730400e+00 7.899000e-01 1.509600e+00
      endloop
   endfacet
   facet normal -6.231245e-02 6.926078e-01 7.186178e-01
      outer loop
         vertex 1.398900e+00 4.255000e-01 1.865800e+00
         vertex 1.820000e+00 5.522000e-01 1.780200e+00
         vertex 1.399400e+00 7.890000e-01 1.515500e+00
      endloop
   endfacet
   facet normal -1.460055e-03 1.350689e-03 -9.999980e-01
      outer loop
         vertex 8.592000e-01 1.399500e+00 5.970000e-02
         vertex 1.354300e+00 1.342400e+00 5.890000e-02
         vertex 1.686500e+00 8.871000e-01 5.780000e-02
      endloop
   endfacet
endsolid